# 3ds Max Wavefront OBJ Exporter v0.99 - (c)2007 guruware
# File Created: 08.05.2025 02:29:12

mtllib 1upmushroom.mtl

#
# object 10
#

v  0.0000 1.3466 -1.4332
v  0.0000 1.8140 -0.8049
v  0.5417 1.4550 -1.2279
v  0.6445 -1.0568 0.9143
v  0.3486 -1.0568 1.1113
v  0.2956 -1.1981 0.5876
v  0.3717 -0.5546 1.2524
v  0.4941 -0.5067 1.2789
v  0.4204 -0.5150 1.3319
v  0.4994 -0.4867 1.2008
v  0.3053 -0.5067 1.3392
v  0.2429 -0.4867 1.2856
v  0.7627 0.1825 1.0453
v  0.8138 -0.3432 1.0665
v  0.9767 0.0084 0.7539
v  1.0186 -0.8195 0.2984
v  0.7920 -0.8195 1.0321
v  0.9115 -1.0568 0.2984
v  1.1049 -0.3432 0.2912
v  -0.6445 -1.0568 0.9143
v  -0.2956 -1.1981 0.5876
v  -0.3486 -1.0568 1.1113
v  -0.3717 -0.5546 1.2524
v  -0.4204 -0.5150 1.3319
v  -0.4941 -0.5067 1.2789
v  -0.4994 -0.4867 1.2008
v  -0.2429 -0.4867 1.2856
v  -0.3053 -0.5067 1.3392
v  -0.7627 0.1825 1.0453
v  -0.9767 0.0084 0.7539
v  -0.8138 -0.3432 1.0665
v  -1.0186 -0.8195 0.2984
v  -0.9115 -1.0568 0.2984
v  -0.7920 -0.8195 1.0321
v  -1.1049 -0.3432 0.2912
v  -0.5417 1.4550 -1.2279
v  0.0000 2.0696 -0.0646
v  -0.5417 1.9611 -0.2699
v  0.5417 1.9611 -0.2699
v  0.7739 1.7081 -0.7489
v  -0.7739 1.7081 -0.7489
v  -0.0000 -1.2023 0.6939
v  -0.0000 -1.0568 1.1694
v  0.4223 -0.8195 1.2685
v  -0.0000 -0.8195 1.3383
v  0.4175 -0.3432 1.2768
v  -0.0000 -0.3432 1.3632
v  0.4077 0.1825 1.2463
v  -0.0000 0.1825 1.3084
v  1.8374 -0.1285 0.2213
v  1.5003 -0.4639 0.3956
v  1.0872 -0.9631 -0.4774
v  1.2862 -0.7293 -0.9160
v  1.2862 0.4723 1.3585
v  1.0066 -0.0367 1.3663
v  1.4332 1.3902 -0.5810
v  1.0032 0.9216 -1.4680
v  1.0032 1.8588 0.3061
v  1.2862 1.5318 0.7988
v  1.8374 0.9311 -0.3384
v  1.2862 0.3303 -1.4757
v  1.9376 0.4013 -0.0586
v  1.3980 -0.2517 -1.2947
v  1.3980 1.0543 1.1776
v  -0.0000 2.0596 0.6862
v  -0.0000 1.7893 1.2862
v  -0.0000 1.3342 1.7074
v  -0.0000 0.7298 1.8459
v  -0.0000 0.1075 1.7317
v  0.0000 -0.5316 -1.8245
v  0.0000 -0.9867 -1.4034
v  0.0000 0.7208 -1.8482
v  0.0000 0.0728 -1.9631
v  0.4114 -1.1981 0.3000
v  0.0000 -1.1864 -0.9476
v  0.5414 0.1567 1.1477
v  0.5343 0.1287 1.2569
v  0.5520 -0.3018 1.3076
v  0.5593 -0.2737 1.1985
v  0.3275 -1.1981 0.0444
v  0.7644 -1.0568 -0.2209
v  0.4490 -0.3134 1.3879
v  0.4344 0.1171 1.3371
v  0.8867 -0.8195 -0.2811
v  1.0220 -0.5173 -0.1091
v  0.2946 -0.3018 1.3909
v  0.2846 0.1287 1.3401
v  0.0000 -1.2021 -0.0875
v  -0.0000 -1.0568 -0.5726
v  0.2059 -0.2737 1.2929
v  -0.0000 -0.8195 -0.7783
v  0.1986 0.1567 1.2421
v  -0.4223 -0.8195 1.2685
v  -0.4175 -0.3432 1.2768
v  -0.4077 0.1825 1.2463
v  -1.5003 -0.4639 0.3956
v  -1.8374 -0.1285 0.2213
v  -1.2862 -0.7293 -0.9160
v  -1.0872 -0.9631 -0.4774
v  -1.0066 -0.0367 1.3663
v  -1.2862 0.4723 1.3585
v  -1.4332 1.3902 -0.5810
v  -1.0032 0.9216 -1.4680
v  -1.0032 1.8588 0.3061
v  -1.2862 1.5318 0.7988
v  -1.8374 0.9311 -0.3384
v  -1.3980 -0.2517 -1.2947
v  -1.9376 0.4013 -0.0586
v  -1.2862 0.3303 -1.4757
v  -1.3980 1.0543 1.1776
v  -0.4114 -1.1981 0.3000
v  -0.5593 -0.2737 1.1985
v  -0.5520 -0.3018 1.3076
v  -0.5343 0.1287 1.2568
v  -0.5414 0.1567 1.1477
v  -0.7644 -1.0568 -0.2209
v  -0.3275 -1.1981 0.0444
v  -0.4490 -0.3134 1.3879
v  -0.4344 0.1171 1.3371
v  -1.0220 -0.5173 -0.1091
v  -0.8867 -0.8195 -0.2811
v  -0.2946 -0.3018 1.3909
v  -0.2846 0.1287 1.3401
v  -0.2059 -0.2737 1.2929
v  -0.1986 0.1567 1.2421
# 125 vertices

vn 0.0413 0.6626 -0.7478
vn 0.0000 0.8842 -0.4671
vn 0.2277 0.7307 -0.6436
vn 0.3986 -0.8641 0.3074
vn 0.2346 -0.8216 0.5196
vn 0.0931 -0.9909 0.0967
vn 0.0633 -0.9797 0.1901
vn 0.7582 -0.6219 0.1958
vn 0.3391 -0.5980 0.7263
vn 0.7531 -0.6477 -0.1158
vn -0.2570 -0.5886 0.7665
vn -0.6871 -0.4647 0.5585
vn 0.6123 0.0832 0.7862
vn 0.7342 -0.0178 0.6787
vn 0.8908 -0.0090 0.4543
vn 0.9406 -0.3388 -0.0209
vn 0.7560 -0.3884 0.5270
vn 0.6092 -0.7912 0.0536
vn 0.9686 -0.1932 0.1568
vn -0.4354 -0.7902 0.4313
vn -0.0990 -0.9889 0.1108
vn -0.1963 -0.7801 0.5941
vn -0.0633 -0.9797 0.1901
vn -0.2016 -0.5923 0.7800
vn -0.6785 -0.6324 0.3739
vn -0.8473 -0.5253 -0.0780
vn 0.6272 -0.5888 0.5097
vn 0.4386 -0.5608 0.7022
vn -0.6792 0.0953 0.7278
vn -0.8908 -0.0090 0.4543
vn -0.7717 -0.0285 0.6353
vn -0.9634 -0.2603 0.0647
vn -0.6558 -0.7534 0.0470
vn -0.7317 -0.3233 0.6001
vn -0.9679 -0.1578 0.1956
vn -0.2666 0.6944 -0.6684
vn -0.0413 0.9912 -0.1258
vn -0.2785 0.9303 -0.2387
vn 0.2235 0.9560 -0.1901
vn 0.3738 0.8201 -0.4332
vn -0.3191 0.8380 -0.4427
vn 0.0086 -0.9796 0.2008
vn 0.0038 -0.8156 0.5787
vn 0.3311 -0.3270 0.8851
vn 0.0120 -0.3246 0.9458
vn 0.3370 0.0208 0.9413
vn -0.0022 0.0250 0.9997
vn 0.2850 0.0752 0.9556
vn -0.0683 0.0892 0.9937
vn 0.8807 -0.3902 0.2687
vn 0.4031 -0.8066 0.4322
vn 0.4896 -0.8696 0.0640
vn 0.6180 -0.6787 -0.3968
vn 0.6297 -0.1028 0.7700
vn 0.3486 -0.6351 0.6893
vn 0.6746 0.6182 -0.4034
vn 0.4205 0.5145 -0.7473
vn 0.5179 0.8555 -0.0040
vn 0.5733 0.7336 0.3648
vn 0.9014 0.4243 -0.0867
vn 0.6410 0.0875 -0.7626
vn 0.9903 -0.0648 -0.1227
vn 0.7200 -0.3241 -0.6136
vn 0.7148 0.3266 0.6183
vn 0.0917 0.9729 0.2122
vn 0.0113 0.8131 0.5820
vn -0.1414 0.4624 0.8753
vn 0.1261 0.0207 0.9918
vn -0.0920 -0.4103 0.9073
vn 0.1414 -0.4624 -0.8753
vn -0.1285 -0.8144 -0.5658
vn 0.0211 0.3746 -0.9270
vn -0.1267 -0.0222 -0.9917
vn 0.1705 -0.9850 0.0282
vn 0.0516 -0.9914 0.1200
vn 0.9956 0.0504 0.0787
vn 0.7977 0.1013 0.5945
vn 0.8829 -0.1144 0.4554
vn 0.9859 -0.1658 0.0235
vn 0.1718 -0.9782 -0.1165
vn 0.4998 -0.7858 -0.3644
vn 0.3393 -0.0824 0.9370
vn 0.2342 0.1216 0.9646
vn 0.7752 -0.4603 -0.4326
vn 0.9157 -0.4017 -0.0147
vn -0.3883 -0.0576 0.9197
vn -0.5225 0.0895 0.8479
vn 0.0207 -0.9921 -0.1241
vn 0.0579 -0.8212 -0.5677
vn -0.7460 -0.0078 0.6659
vn -0.1371 -0.5947 -0.7922
vn -0.7405 0.0663 0.6688
vn -0.3406 -0.3268 0.8816
vn -0.3435 0.0191 0.9389
vn -0.3749 0.0684 0.9246
vn -0.6627 -0.6634 0.3475
vn -0.9135 -0.3891 0.1184
vn -0.6612 -0.7030 -0.2617
vn -0.3419 -0.9388 0.0427
vn -0.2161 -0.7744 0.5946
vn -0.6355 -0.0995 0.7657
vn -0.6212 0.7142 -0.3226
vn -0.4950 0.4002 -0.7712
vn -0.3960 0.9124 0.1037
vn -0.6829 0.6422 0.3482
vn -0.9014 0.3108 -0.3016
vn -0.7148 -0.3266 -0.6183
vn -0.9903 0.0648 0.1227
vn -0.6337 0.0962 -0.7675
vn -0.7200 0.3241 0.6136
vn -0.2023 -0.9792 -0.0133
vn -0.9970 -0.0574 0.0514
vn -0.8892 -0.1006 0.4464
vn -0.9379 0.0786 0.3378
vn -0.9957 0.0506 0.0778
vn -0.4189 -0.8133 -0.4038
vn -0.1074 -0.9853 -0.1331
vn -0.3311 -0.0874 0.9395
vn -0.4338 0.1215 0.8928
vn -0.9565 -0.2382 -0.1686
vn -0.8199 -0.4277 -0.3806
vn 0.4011 -0.0856 0.9120
vn 0.2481 0.1079 0.9627
vn 0.7243 -0.0911 0.6835
vn 0.7358 0.0647 0.6741
# 125 vertex normals

vt 0.2896 0.0436 0.0000
vt 0.2896 0.0917 0.0000
vt 0.3287 0.0593 0.0000
vt 0.0548 0.3862 0.0000
vt 0.0386 0.3862 0.0000
vt 0.0385 0.3223 0.0000
vt 0.0637 0.0677 0.0000
vt 0.0637 0.1872 0.0000
vt 0.0261 0.0677 0.0000
vt 0.0225 0.9802 0.0000
vt 0.0225 0.7282 0.0000
vt 0.0586 0.9802 0.0000
vt 0.0917 0.5311 0.0000
vt 0.0225 0.5311 0.0000
vt 0.0225 0.3862 0.0000
vt 0.0893 0.7282 0.0000
vt 0.2896 0.1485 0.0000
vt 0.3287 0.1328 0.0000
vt 0.3455 0.0960 0.0000
vt 0.0224 0.3167 0.0000
vt 0.0571 0.5311 0.0000
vt 0.0559 0.7282 0.0000
vt 0.0405 0.9802 0.0000
vt 0.6706 0.3844 0.0000
vt 0.7037 0.2432 0.0000
vt 0.4190 0.1296 0.0000
vt 0.2940 0.2279 0.0000
vt 0.9980 0.4995 0.0000
vt 0.9786 0.3097 0.0000
vt 0.3518 0.9563 0.0000
vt 0.4009 0.8635 0.0000
vt 0.1415 0.7268 0.0000
vt 0.2117 0.8824 0.0000
vt 0.5208 0.9844 0.0000
vt 0.6615 0.9844 0.0000
vt 0.7444 0.9926 0.0000
vt 0.9089 0.8404 0.0000
vt 0.5415 0.7372 0.0000
vt 0.4828 0.9505 0.0000
vt 0.1267 0.6220 0.0000
vt 0.6156 0.5504 0.0000
vt 0.1706 0.3699 0.0000
vt 0.9718 0.6809 0.0000
vt 0.2043 0.8466 0.0000
vt 0.5625 0.7115 0.0000
vt 0.5625 0.5443 0.0000
vt 0.9356 0.5535 0.0000
vt 0.8536 0.7187 0.0000
vt 0.5625 0.3565 0.0000
vt 0.9681 0.3665 0.0000
vt 0.5625 0.1741 0.0000
vt 0.9356 0.1833 0.0000
vt 0.7197 0.8375 0.0000
vt 0.5625 0.8336 0.0000
vt 0.5625 0.0451 0.0000
vt 0.8188 0.0152 0.0000
vt 0.5625 0.4232 0.0000
vt 0.9681 0.4132 0.0000
vt 0.9356 0.2262 0.0000
vt 0.5625 0.2354 0.0000
vt 0.5625 0.7594 0.0000
vt 0.8536 0.7522 0.0000
vt 0.9356 0.5965 0.0000
vt 0.5625 0.6057 0.0000
vt 0.0224 0.3223 0.0000
vt 0.0378 0.3196 0.0000
vt 0.5625 0.8595 0.0000
vt 0.7197 0.8556 0.0000
vt 0.8188 0.0487 0.0000
vt 0.5625 0.0929 0.0000
vt 0.0261 0.1872 0.0000
vt 0.0223 0.2589 0.0000
vt 0.0393 0.3255 0.0000
vt 0.0393 0.3862 0.0000
vt 0.0392 0.3253 0.0000
vt 0.0404 0.3862 0.0000
vt 0.3534 0.1224 0.0000
vt 0.2896 0.0890 0.0000
vt 0.3534 0.2585 0.0000
vt 0.3758 0.1962 0.0000
vt 0.2896 0.2833 0.0000
# 81 texture coords

o 10
g 10
usemtl 1upmushroom_mushroom
s 1
f 1/1/1 2/2/2 3/3/3 
f 4/4/4 5/5/5 6/6/6 
f 7/7/7 8/8/8 9/9/9 
f 7/7/7 10/8/10 8/9/8 
f 7/7/7 11/8/11 12/9/12 
f 7/7/7 9/8/9 11/9/11 
f 13/10/13 14/11/14 15/12/15 
f 16/13/16 17/14/17 18/4/18 
f 4/15/4 18/4/18 17/14/17 
f 19/16/19 15/12/15 14/11/14 
f 20/4/20 21/6/21 22/5/22 
f 23/7/23 24/9/24 25/8/25 
f 23/7/23 25/9/25 26/8/26 
f 23/7/23 27/9/27 28/8/28 
f 23/7/23 28/9/28 24/8/24 
f 29/10/29 30/12/30 31/11/31 
f 32/13/32 33/4/33 34/14/34 
f 20/15/20 34/14/34 33/4/33 
f 35/16/35 31/11/31 30/12/30 
f 1/1/1 36/3/36 2/2/2 
f 37/17/37 2/2/2 38/18/38 
f 37/17/37 39/18/39 2/2/2 
f 40/19/40 2/2/2 39/18/39 
f 41/19/41 2/2/2 36/3/36 
f 41/19/41 38/18/38 2/2/2 
f 40/19/40 3/3/3 2/2/2 
f 42/20/42 6/6/6 5/5/5 
f 43/15/43 42/20/42 5/5/5 
f 43/15/43 5/5/5 44/21/44 
f 45/14/45 43/15/43 44/21/44 
f 45/14/45 44/21/44 46/22/46 
f 47/11/47 45/14/45 46/22/46 
f 47/11/47 46/22/46 48/23/48 
f 49/10/49 47/11/47 48/23/48 
f 50/24/50 51/25/51 52/26/52 
f 53/27/53 50/24/50 52/26/52 
f 50/24/50 54/28/54 55/29/55 
f 51/25/51 50/24/50 55/29/55 
f 40/30/40 56/31/56 57/32/57 
f 3/33/3 40/30/40 57/32/57 
f 40/30/40 39/34/39 58/35/58 
f 56/31/56 40/30/40 58/35/58 
f 58/36/58 59/37/59 60/38/60 
f 56/39/56 58/36/58 60/38/60 
f 61/40/61 60/38/60 62/41/62 
f 63/42/63 61/40/61 62/41/62 
f 60/38/60 59/37/59 64/43/64 
f 62/41/62 60/38/60 64/43/64 
f 64/43/64 54/28/54 50/24/50 
f 62/41/62 64/43/64 50/24/50 
f 62/41/62 50/24/50 53/27/53 
f 63/42/63 62/41/62 53/27/53 
f 56/39/56 60/38/60 61/40/61 
f 57/44/57 56/39/56 61/40/61 
f 65/45/65 66/46/66 59/47/59 
f 58/48/58 65/45/65 59/47/59 
f 66/46/66 67/49/67 64/50/64 
f 59/47/59 66/46/66 64/50/64 
f 64/50/64 67/49/67 68/51/68 
f 54/52/54 64/50/64 68/51/68 
f 39/53/39 37/54/37 65/45/65 
f 58/48/58 39/53/39 65/45/65 
f 68/51/68 69/55/69 55/56/55 
f 54/52/54 68/51/68 55/56/55 
f 70/57/70 63/58/63 53/59/53 
f 71/60/71 70/57/70 53/59/53 
f 72/61/72 57/62/57 61/63/61 
f 73/64/73 72/61/72 61/63/61 
f 61/63/61 63/58/63 70/57/70 
f 73/64/73 61/63/61 70/57/70 
f 4/15/4 6/65/6 74/66/74 
f 18/4/18 4/15/4 74/66/74 
f 1/67/1 3/68/3 57/62/57 
f 72/61/72 1/67/1 57/62/57 
f 53/59/53 52/69/52 75/70/75 
f 71/60/71 53/59/53 75/70/75 
f 76/8/76 77/71/77 78/9/78 
f 79/7/79 76/8/76 78/9/78 
f 79/8/79 78/71/78 8/9/8 
f 10/7/10 79/8/79 8/9/8 
f 18/72/18 74/73/74 80/74/80 
f 81/15/81 18/72/18 80/74/80 
f 78/8/78 82/71/82 9/9/9 
f 8/7/8 78/8/78 9/9/9 
f 77/8/77 83/71/83 82/9/82 
f 78/7/78 77/8/77 82/9/82 
f 19/11/19 16/14/16 84/13/84 
f 85/16/85 19/11/19 84/13/84 
f 82/8/82 86/71/86 11/9/11 
f 9/7/9 82/8/82 11/9/11 
f 83/8/83 87/71/87 86/9/86 
f 82/7/82 83/8/83 86/9/86 
f 81/72/81 80/75/80 88/76/88 
f 89/15/89 81/72/81 88/76/88 
f 86/8/86 90/71/90 12/9/12 
f 11/7/11 86/8/86 12/9/12 
f 13/12/13 48/23/48 46/22/46 
f 14/16/14 13/12/13 46/22/46 
f 14/16/14 46/22/46 44/21/44 
f 17/13/17 14/16/14 44/21/44 
f 17/13/17 44/21/44 5/5/5 
f 4/4/4 17/13/17 5/5/5 
f 84/14/84 81/15/81 89/4/89 
f 91/13/91 84/14/84 89/4/89 
f 16/14/16 18/15/18 81/4/81 
f 84/13/84 16/14/16 81/4/81 
f 87/8/87 92/71/92 90/9/90 
f 86/7/86 87/8/87 90/9/90 
f 17/14/17 16/13/16 19/16/19 
f 14/11/14 17/14/17 19/16/19 
f 43/15/43 22/5/22 21/6/21 
f 42/20/42 43/15/43 21/6/21 
f 45/14/45 93/21/93 22/5/22 
f 43/15/43 45/14/45 22/5/22 
f 47/11/47 94/22/94 93/21/93 
f 45/14/45 47/11/47 93/21/93 
f 49/10/49 95/23/95 94/22/94 
f 47/11/47 49/10/49 94/22/94 
f 96/25/96 97/24/97 98/27/98 
f 99/26/99 96/25/96 98/27/98 
f 96/25/96 100/29/100 101/28/101 
f 97/24/97 96/25/96 101/28/101 
f 102/31/102 41/30/41 36/33/36 
f 103/32/103 102/31/102 36/33/36 
f 102/31/102 104/35/104 38/34/38 
f 41/30/41 102/31/102 38/34/38 
f 105/37/105 104/36/104 102/39/102 
f 106/38/106 105/37/105 102/39/102 
f 107/42/107 108/41/108 106/38/106 
f 109/40/109 107/42/107 106/38/106 
f 108/41/108 110/43/110 105/37/105 
f 106/38/106 108/41/108 105/37/105 
f 101/28/101 110/43/110 108/41/108 
f 97/24/97 101/28/101 108/41/108 
f 97/24/97 108/41/108 107/42/107 
f 98/27/98 97/24/97 107/42/107 
f 106/38/106 102/39/102 103/44/103 
f 109/40/109 106/38/106 103/44/103 
f 66/46/66 65/45/65 104/48/104 
f 105/47/105 66/46/66 104/48/104 
f 99/77/99 75/78/75 100/79/100 
f 96/80/96 99/77/99 100/79/100 
f 67/49/67 66/46/66 105/47/105 
f 110/50/110 67/49/67 105/47/105 
f 101/52/101 68/51/68 67/49/67 
f 110/50/110 101/52/101 67/49/67 
f 104/48/104 65/45/65 37/54/37 
f 38/53/38 104/48/104 37/54/37 
f 69/55/69 68/51/68 101/52/101 
f 100/56/100 69/55/69 101/52/101 
f 71/60/71 98/59/98 107/58/107 
f 70/57/70 71/60/71 107/58/107 
f 73/64/73 109/63/109 103/62/103 
f 72/61/72 73/64/73 103/62/103 
f 107/58/107 109/63/109 73/64/73 
f 70/57/70 107/58/107 73/64/73 
f 33/4/33 111/66/111 21/65/21 
f 20/15/20 33/4/33 21/65/21 
f 72/61/72 103/62/103 36/68/36 
f 1/67/1 72/61/72 36/68/36 
f 99/69/99 98/59/98 71/60/71 
f 75/70/75 99/69/99 71/60/71 
f 112/7/112 113/9/113 114/71/114 
f 115/8/115 112/7/112 114/71/114 
f 26/7/26 25/9/25 113/71/113 
f 112/8/112 26/7/26 113/71/113 
f 116/15/116 117/74/117 111/73/111 
f 33/72/33 116/15/116 111/73/111 
f 25/7/25 24/9/24 118/71/118 
f 113/8/113 25/7/25 118/71/118 
f 113/7/113 118/9/118 119/71/119 
f 114/8/114 113/7/113 119/71/119 
f 120/16/120 121/13/121 32/14/32 
f 35/11/35 120/16/120 32/14/32 
f 24/7/24 28/9/28 122/71/122 
f 118/8/118 24/7/24 122/71/122 
f 118/7/118 122/9/122 123/71/123 
f 119/8/119 118/7/118 123/71/123 
f 89/15/89 88/76/88 117/75/117 
f 116/72/116 89/15/89 117/75/117 
f 28/7/28 27/9/27 124/71/124 
f 122/8/122 28/7/28 124/71/124 
f 31/16/31 94/22/94 95/23/95 
f 29/12/29 31/16/31 95/23/95 
f 34/13/34 93/21/93 94/22/94 
f 31/16/31 34/13/34 94/22/94 
f 20/4/20 22/5/22 93/21/93 
f 34/13/34 20/4/20 93/21/93 
f 74/66/74 6/6/6 88/76/88 
f 80/74/80 74/66/74 88/76/88 
f 91/13/91 89/4/89 116/15/116 
f 121/14/121 91/13/91 116/15/116 
f 121/13/121 116/4/116 33/15/33 
f 32/14/32 121/13/121 33/15/33 
f 122/7/122 124/9/124 125/71/125 
f 123/8/123 122/7/122 125/71/125 
f 31/11/31 35/16/35 32/13/32 
f 34/14/34 31/11/31 32/13/32 
f 117/75/117 88/76/88 21/65/21 
f 111/73/111 117/75/117 21/65/21 
f 21/65/21 88/76/88 6/6/6 
f 42/20/42 21/65/21 6/6/6 
f 51/80/51 55/79/55 75/78/75 
f 52/77/52 51/80/51 75/78/75 
f 100/79/100 75/78/75 55/79/55 
f 69/81/69 100/79/100 55/79/55 
# 206 faces

