# 3ds Max Wavefront OBJ Exporter v0.99 - (c)2007 guruware
# File Created: 07.05.2025 03:32:22

mtllib phineas_piernaD.mtl

#
# object Phineas_Pierna_Der
#

v  0.0356 -0.3259 0.1233
v  0.0385 -0.3597 0.1262
v  0.0475 -0.3565 0.0585
v  0.0377 -0.3032 0.0551
v  0.0121 -0.3132 0.1274
v  0.0151 -0.2799 0.0471
v  -0.0246 -0.2799 0.0469
v  -0.0192 -0.2794 -0.0087
v  -0.0496 -0.3030 0.0522
v  -0.0341 -0.3018 -0.0379
v  -0.0392 -0.3517 -0.0404
v  -0.0209 -0.3499 -0.0718
v  0.0128 -0.2793 -0.0087
v  0.0253 -0.3013 -0.0365
v  0.0304 -0.3513 -0.0388
v  0.0177 -0.3494 -0.0724
v  0.0059 -0.3609 0.1496
v  -0.0214 -0.3609 0.1498
v  -0.0554 -0.3596 0.1223
v  -0.0628 -0.3565 0.0575
v  0.0827 -0.0384 -0.1371
v  -0.0179 0.0197 -0.1001
v  0.0827 0.0221 -0.1385
v  -0.0249 -0.0449 -0.1032
v  0.0692 -0.0629 -0.1276
v  0.0536 -0.1179 -0.1113
v  0.0733 -0.0719 -0.0217
v  0.0668 -0.1258 -0.0308
v  -0.0543 0.0060 -0.0112
v  -0.0545 -0.0435 -0.0136
v  -0.0197 -0.0478 0.0569
v  -0.0175 -0.1333 0.0542
v  0.0690 -0.0834 0.0756
v  0.0604 -0.1327 0.0644
v  -0.0145 -0.2534 -0.0577
v  0.0107 -0.2529 -0.0585
v  0.0186 -0.2543 -0.0345
v  0.0094 -0.2553 -0.0142
v  -0.0156 -0.2553 -0.0141
v  -0.0272 -0.2547 -0.0355
v  -0.0140 -0.1579 -0.0484
v  0.0089 -0.1573 -0.0498
v  0.0167 -0.1589 -0.0283
v  0.0088 -0.1597 -0.0096
v  -0.0138 -0.1601 -0.0088
v  -0.0249 -0.1598 -0.0280
v  -0.0249 -0.0792 -0.0235
v  -0.0140 -0.0767 -0.0439
v  0.0827 -0.0476 0.0853
v  0.0827 0.0131 0.0907
v  -0.0128 0.0072 0.0584
v  -0.0484 -0.3257 0.1216
v  -0.0262 -0.3133 0.1273
v  -0.0590 -0.1386 -0.0181
v  -0.0226 -0.1294 -0.1034
v  0.0089 -0.0735 -0.0452
v  0.0167 -0.0764 -0.0237
v  -0.0138 -0.0776 -0.0042
v  0.0088 -0.0772 -0.0050
v  0.0827 -0.0594 -0.0189
v  -0.0035 -0.1175 -0.0262
# 61 vertices

vn 0.7410 0.4351 0.5114
vn 0.6939 -0.5935 0.4076
vn 0.7881 -0.6137 -0.0488
vn 0.8665 0.4924 0.0823
vn 0.2313 0.7094 0.6658
vn 0.7410 0.4351 0.5115
vn 0.8665 0.4923 0.0824
vn 0.3646 0.9149 0.1731
vn -0.3569 0.9208 0.1576
vn -0.6392 0.6805 0.3583
vn -0.3569 0.9207 0.1577
vn -0.8588 0.5104 0.0440
vn -0.6392 0.6805 0.3582
vn -0.9450 0.1846 -0.2699
vn -0.7255 -0.6193 -0.3003
vn -0.8588 0.5104 0.0439
vn -0.9450 0.1845 -0.2699
vn -0.4118 -0.5373 -0.7360
vn -0.7255 -0.6193 -0.3002
vn 0.6705 0.6547 0.3491
vn 0.8665 0.4924 0.0824
vn 0.6704 0.6547 0.3491
vn 0.9606 0.2166 -0.1741
vn 0.6704 0.6547 0.3492
vn 0.7332 -0.6425 -0.2228
vn 0.8665 0.4923 0.0823
vn 0.4665 -0.5250 -0.7118
vn 0.7332 -0.6425 -0.2229
vn 0.6940 -0.5936 0.4075
vn 0.1999 -0.5120 0.8354
vn -0.2314 -0.5114 0.8276
vn -0.7411 -0.5602 0.3700
vn 0.6940 -0.5935 0.4075
vn 0.7881 -0.6137 -0.0487
vn 0.6940 -0.5935 0.4076
vn -0.7412 -0.5602 0.3699
vn -0.8117 -0.5797 -0.0707
vn 0.7881 -0.6136 -0.0488
vn -0.4118 -0.5374 -0.7360
vn 0.4665 -0.5250 -0.7119
vn -0.0040 -0.2821 -0.9594
vn -0.6627 0.0356 -0.7480
vn -0.0040 -0.0792 -0.9969
vn -0.6863 -0.0198 -0.7271
vn -0.6627 0.0355 -0.7480
vn 0.4273 -0.4704 -0.7721
vn -0.6862 -0.0198 -0.7271
vn 0.4273 -0.6685 -0.6087
vn 0.4274 -0.4704 -0.7721
vn 0.9135 -0.4041 -0.0466
vn 0.4273 -0.6684 -0.6088
vn 0.4273 -0.4705 -0.7721
vn 0.6391 -0.7632 -0.0951
vn -0.9978 -0.0032 0.0665
vn -0.9978 -0.0031 0.0665
vn -0.6337 -0.0368 0.7727
vn -0.4353 -0.6853 0.5838
vn -0.6337 -0.0367 0.7727
vn 0.5371 -0.3165 0.7819
vn -0.4353 -0.6854 0.5838
vn 0.4665 -0.7099 0.5277
vn 0.5371 -0.3164 0.7819
vn 0.4666 -0.7098 0.5277
vn 0.6390 -0.7633 -0.0950
vn 0.4665 -0.7098 0.5277
vn 0.4666 -0.5249 -0.7119
vn -0.4117 -0.5374 -0.7360
vn -0.5137 0.1508 -0.8446
vn 0.5606 0.1579 -0.8129
vn 0.9920 0.1167 0.0488
vn 0.5606 0.1580 -0.8129
vn 0.9606 0.2166 -0.1742
vn 0.5450 0.0962 0.8329
vn -0.5137 0.0689 0.8552
vn 0.6705 0.6546 0.3492
vn -0.9996 0.0013 -0.0273
vn -0.9451 0.1845 -0.2699
vn -0.5137 0.1507 -0.8446
vn -0.5451 0.1133 -0.8307
vn 0.5450 0.1756 -0.8199
vn 0.5607 0.1579 -0.8128
vn 0.9920 0.1220 0.0334
vn 0.9920 0.1220 0.0333
vn 0.5607 -0.0718 0.8249
vn 0.9920 0.1221 0.0334
vn -0.4890 -0.0414 0.8713
vn -0.9998 -0.0010 0.0196
vn -0.9998 -0.0009 0.0196
vn -0.9996 -0.0013 0.0275
vn -0.9998 -0.0009 0.0197
vn -0.0040 -0.2232 0.9748
vn -0.0040 -0.0572 0.9984
vn -0.5842 -0.0385 0.8107
vn -0.7490 0.4394 0.4959
vn -0.7411 -0.5602 0.3699
vn -0.2706 0.7030 0.6577
vn -0.2706 0.7031 0.6576
vn 0.1999 -0.5119 0.8354
vn -0.6941 -0.7197 0.0169
vn -0.4196 -0.6731 -0.6090
vn -0.4196 -0.6731 -0.6089
vn 0.7881 -0.6136 -0.0487
vn -0.8588 0.5105 0.0440
vn -0.7254 -0.6193 -0.3003
vn -0.8117 -0.5798 -0.0707
vn -0.7490 0.4393 0.4959
vn -0.8588 0.5105 0.0439
vn -0.8117 -0.5798 -0.0706
vn -0.2706 0.7030 0.6576
vn 0.5449 0.1756 -0.8199
vn 0.9998 -0.0009 0.0196
vn 0.9998 -0.0010 0.0196
vn 0.5606 -0.0718 0.8249
vn 0.9920 0.1221 0.0333
vn -0.4643 -0.0420 0.8847
vn 0.5606 -0.0717 0.8250
vn 0.5607 -0.0717 0.8249
vn -0.0040 -0.9966 -0.0826
vn 0.4273 -0.4705 -0.7720
vn -0.0040 -0.2233 0.9747
vn 0.5372 -0.3164 0.7819
vn 0.1372 -0.9896 -0.0430
vn -0.6941 -0.7197 0.0170
vn -0.4197 -0.6731 -0.6089
vn 0.1372 -0.9896 -0.0431
vn 0.4273 -0.6684 -0.6087
vn 0.6391 -0.7633 -0.0951
vn 0.4666 -0.7099 0.5277
vn 0.4666 -0.7099 0.5276
# 129 vertex normals

vt 0.2853 0.1013 0.0000
vt 0.2396 0.0666 0.0000
vt 0.1884 0.1885 0.0000
vt 0.2761 0.2273 0.0000
vt 0.3221 0.1021 0.0000
vt 0.3220 0.2563 0.0000
vt 0.3901 0.2529 0.0000
vt 0.4045 0.3450 0.0000
vt 0.4468 0.2213 0.0000
vt 0.4700 0.3522 0.0000
vt 0.5699 0.3198 0.0000
vt 0.5781 0.4310 0.0000
vt 0.3221 0.3529 0.0000
vt 0.2574 0.3663 0.0000
vt 0.1602 0.3355 0.0000
vt 0.1428 0.4319 0.0000
vt 0.0128 0.2255 0.0000
vt 0.0262 0.2146 0.0000
vt 0.0376 0.2142 0.0000
vt 0.0521 0.2261 0.0000
vt 0.0099 0.2559 0.0000
vt 0.0560 0.2550 0.0000
vt 0.0497 0.2904 0.0000
vt 0.0163 0.2914 0.0000
vt 0.0400 0.3134 0.0000
vt 0.0239 0.3141 0.0000
vt 0.9069 0.5929 0.0000
vt 0.9857 0.4455 0.0000
vt 0.9656 0.6045 0.0000
vt 0.9025 0.4440 0.0000
vt 0.8729 0.5651 0.0000
vt 0.8088 0.5183 0.0000
vt 0.7440 0.6263 0.0000
vt 0.7166 0.5423 0.0000
vt 0.9805 0.3257 0.0000
vt 0.9043 0.3252 0.0000
vt 0.9197 0.2242 0.0000
vt 0.8215 0.2239 0.0000
vt 0.8555 0.1153 0.0000
vt 0.7930 0.1398 0.0000
vt 0.7594 0.0351 0.0000
vt 0.7056 0.1050 0.0000
vt 0.2159 0.0622 0.0000
vt 0.1775 0.0081 0.0000
vt 0.0144 0.1278 0.0000
vt 0.0505 0.1625 0.0000
vt 0.1608 0.1825 0.0000
vt 0.0677 0.2109 0.0000
vt 0.1309 0.2550 0.0000
vt 0.0827 0.2540 0.0000
vt 0.0783 0.3041 0.0000
vt 0.1211 0.3236 0.0000
vt 0.0532 0.3439 0.0000
vt 0.1204 0.4095 0.0000
vt 0.0914 0.2286 0.0000
vt 0.2166 0.0702 0.0000
vt 0.1006 0.1104 0.0000
vt 0.0536 0.1916 0.0000
vt 0.6795 0.6644 0.0000
vt 0.6699 0.6642 0.0000
vt 0.6699 0.7051 0.0000
vt 0.6795 0.7053 0.0000
vt 0.6895 0.6643 0.0000
vt 0.6895 0.7013 0.0000
vt 0.6983 0.6643 0.0000
vt 0.6983 0.7013 0.0000
vt 0.7078 0.7012 0.0000
vt 0.7078 0.6643 0.0000
vt 0.7179 0.7009 0.0000
vt 0.7179 0.6641 0.0000
vt 0.7288 0.7051 0.0000
vt 0.7288 0.6642 0.0000
vt 0.7179 0.7211 0.0000
vt 0.7288 0.7217 0.0000
vt 0.7179 0.7084 0.0000
vt 0.7078 0.7087 0.0000
vt 0.9031 0.0873 0.0000
vt 0.9682 0.0752 0.0000
vt 0.9857 0.2265 0.0000
vt 0.4157 0.0960 0.0000
vt 0.5280 0.1586 0.0000
vt 0.4501 0.0531 0.0000
vt 0.3711 0.0085 0.0000
vt 0.3796 0.1005 0.0000
vt 0.3219 0.0092 0.0000
vt 0.8094 0.3279 0.0000
vt 0.8146 0.4385 0.0000
vt 0.6699 0.7217 0.0000
vt 0.6795 0.7231 0.0000
vt 0.6895 0.7223 0.0000
vt 0.6895 0.7088 0.0000
vt 0.6983 0.7088 0.0000
vt 0.7078 0.7221 0.0000
vt 0.6983 0.7223 0.0000
vt 0.7553 0.6525 0.0000
vt 0.7792 0.0142 0.0000
vt 0.8740 0.5347 0.0000
vt 0.8174 0.5224 0.0000
vt 0.8519 0.5702 0.0000
vt 0.9173 0.5702 0.0000
vt 0.9444 0.5225 0.0000
vt 0.8960 0.4905 0.0000
vt 0.8321 0.4688 0.0000
# 103 texture coords

o Phineas_Pierna_Der
g Phineas_Pierna_Der
usemtl Material_001
s off
f 1/1/1 2/2/2 3/3/3 
f 4/4/4 1/1/1 3/3/3 
f 5/5/5 1/1/6 4/4/7 
f 6/6/8 5/5/5 4/4/4 
f 7/7/9 5/5/5 6/6/8 
f 8/8/10 7/7/11 6/6/8 
f 9/9/12 7/7/9 8/8/13 
f 10/10/14 9/9/12 8/8/13 
f 11/11/15 9/9/16 10/10/17 
f 12/12/18 11/11/19 10/10/17 
f 13/13/20 8/8/10 6/6/8 
f 4/4/21 13/13/22 6/6/8 
f 14/14/23 13/13/24 4/4/21 
f 15/15/25 14/14/23 4/4/26 
f 16/16/27 14/14/23 15/15/28 
f 2/17/29 17/18/30 18/19/31 
f 19/20/32 2/17/33 18/19/31 
f 3/21/34 2/17/35 19/20/36 
f 20/22/37 3/21/34 19/20/32 
f 11/23/19 3/21/38 20/22/37 
f 15/24/25 3/21/34 11/23/15 
f 12/25/39 15/24/28 11/23/19 
f 16/26/40 15/24/28 12/25/18 
f 21/27/41 22/28/42 23/29/43 
f 24/30/44 22/28/45 21/27/41 
f 25/31/46 24/30/47 21/27/41 
f 26/32/48 24/30/44 25/31/49 
f 27/33/50 26/32/51 25/31/52 
f 28/34/53 26/32/51 27/33/50 
f 29/35/54 22/28/42 24/30/44 
f 30/36/55 29/35/54 24/30/44 
f 31/37/56 29/35/55 30/36/55 
f 32/38/57 31/37/58 30/36/54 
f 33/39/59 31/37/56 32/38/60 
f 34/40/61 33/39/62 32/38/57 
f 27/41/50 33/39/59 34/40/63 
f 28/42/64 27/41/50 34/40/65 
f 16/43/66 12/44/67 35/45/68 
f 36/46/69 16/43/27 35/45/68 
f 14/47/23 16/43/40 36/46/69 
f 37/48/70 14/47/23 36/46/71 
f 13/49/22 14/47/72 37/48/70 
f 38/50/73 13/49/22 37/48/70 
f 39/51/74 13/49/75 38/50/73 
f 8/52/13 13/49/24 39/51/74 
f 40/53/76 8/52/13 39/51/74 
f 10/54/77 8/52/13 40/53/76 
f 35/55/78 12/56/39 10/57/17 
f 40/58/76 35/55/68 10/57/17 
f 36/59/71 35/60/68 41/61/79 
f 42/62/80 36/59/81 41/61/79 
f 37/63/70 36/59/69 42/62/80 
f 43/64/82 37/63/70 42/62/80 
f 38/65/73 37/63/70 43/64/83 
f 44/66/84 38/65/73 43/64/85 
f 45/67/86 38/65/73 44/66/84 
f 39/68/74 38/65/73 45/67/86 
f 46/69/87 39/68/74 45/67/86 
f 40/70/76 39/68/74 46/69/88 
f 41/71/79 40/70/76 46/69/87 
f 35/72/78 40/70/76 41/71/79 
f 47/73/89 48/74/78 41/71/79 
f 46/75/88 47/73/89 41/71/79 
f 45/76/86 47/73/89 46/75/90 
f 49/77/91 50/78/92 51/79/93 
f 31/37/58 49/77/91 51/79/93 
f 33/39/62 49/77/91 31/37/58 
f 52/80/94 20/81/37 19/82/36 
f 18/83/31 52/80/94 19/82/95 
f 53/84/96 52/80/94 18/83/31 
f 17/85/30 53/84/97 18/83/31 
f 5/5/5 53/84/97 17/85/30 
f 1/1/1 5/5/5 17/85/98 
f 2/2/35 1/1/1 17/85/98 
f 30/36/55 54/86/99 32/38/57 
f 55/87/100 54/86/99 30/36/54 
f 24/30/47 55/87/101 30/36/55 
f 26/32/48 55/87/100 24/30/47 
f 3/3/102 15/15/25 4/4/21 
f 9/9/103 11/11/104 20/81/105 
f 52/80/106 9/9/107 20/81/108 
f 53/84/109 9/9/103 52/80/94 
f 42/62/110 48/88/68 56/89/81 
f 57/90/111 42/62/80 56/89/81 
f 43/91/85 42/62/110 57/90/112 
f 44/92/113 43/91/114 57/90/112 
f 58/93/115 47/73/89 45/76/86 
f 44/92/116 58/93/115 45/76/86 
f 59/94/113 58/93/115 44/92/113 
f 57/90/111 59/94/117 44/92/84 
f 42/62/80 41/61/79 48/88/68 
f 25/31/52 21/27/41 60/95/118 
f 27/33/50 25/31/119 60/95/118 
f 60/96/118 49/77/120 33/39/121 
f 27/41/50 60/96/118 33/39/62 
f 31/37/58 51/79/93 29/35/54 
f 61/97/122 32/98/57 54/99/99 
f 55/100/101 61/97/122 54/99/123 
f 26/101/51 61/97/122 55/100/124 
f 61/97/125 26/101/126 28/102/127 
f 34/103/128 61/97/122 28/102/127 
f 32/98/57 61/97/122 34/103/129 
f 7/7/11 9/9/103 53/84/97 
f 5/5/5 7/7/11 53/84/97 
# 0 polygons - 104 triangles

