# 3ds Max Wavefront OBJ Exporter v0.99 - (c)2007 guruware
# File Created: 08.05.2025 03:24:09

mtllib Perry_BrazoI.mtl

#
# object BrazoI
#

v  0.7512 -0.7298 0.0775
v  0.3816 -0.4350 0.1822
v  0.6859 -0.7805 0.0730
v  0.9699 -0.9647 0.0010
v  0.9688 -1.0547 -0.2266
v  0.9557 -0.9564 -0.2112
v  0.8784 -1.0300 0.0050
v  0.9282 -1.0726 0.1147
v  0.8726 -1.0118 0.1102
v  0.8455 -0.9718 0.1113
v  0.8666 -1.2121 -0.2009
v  0.8549 -1.1512 -0.2274
v  0.9166 -1.1870 -0.2333
v  0.8392 -0.8811 0.1271
v  0.7801 -0.9701 0.1329
v  0.7625 -0.9518 0.1153
v  0.7991 -1.0848 0.1532
v  0.8429 -1.0795 0.2002
v  0.7915 -1.1123 0.2192
v  0.7867 -1.0598 0.2531
v  0.8518 -0.9706 -0.0011
v  0.9021 -1.1936 0.0060
v  0.9085 -1.2415 -0.0728
v  0.6738 -0.7953 -0.0504
v  0.2212 -0.0828 0.2209
v  -0.0600 -0.1560 0.2993
v  0.1509 -0.2144 0.2553
v  -0.0600 0.1337 0.2840
v  0.3122 0.0591 -0.0048
v  0.1395 0.2843 0.0093
v  0.2522 -0.0521 -0.2259
v  0.0046 0.1685 -0.2538
v  0.0209 -0.1233 -0.3146
v  0.1759 -0.2935 -0.0248
v  0.1903 -0.1913 -0.2727
v  0.1154 -0.2857 -0.0278
v  0.3751 -0.4959 -0.0350
v  0.4122 -0.4171 -0.2270
v  0.7056 -0.7738 -0.1839
v  0.4602 -0.3092 -0.1907
v  0.7673 -0.7208 -0.1602
v  0.5067 -0.2230 -0.0194
v  0.8144 -0.6946 -0.0447
v  0.4361 -0.3330 0.1555
v  0.8596 -0.9492 -0.2176
v  1.0073 -1.0793 -0.0045
v  0.9053 -0.8893 -0.2055
v  0.8908 -0.9927 -0.2208
v  0.8948 -1.0602 -0.2223
v  0.9118 -1.0785 0.0119
v  0.9273 -1.2003 0.1046
v  0.9854 -1.2213 -0.0103
v  1.0145 -1.0695 0.0985
v  1.0043 -1.2203 0.0876
v  0.9557 -0.9668 0.1047
v  0.8999 -0.8966 0.1062
v  0.9160 -0.8775 0.0150
v  0.9539 -1.2586 0.0611
v  0.8329 -0.9645 0.1842
v  0.7740 -0.9442 0.2292
v  0.7479 -1.0677 0.2061
v  0.7316 -0.9504 0.1762
# 62 vertices

vn 0.4378 0.4134 0.7984
vn -0.2648 -0.5001 0.8245
vn -0.7098 -0.2923 0.6409
vn 0.8985 0.4387 0.0178
vn 0.6799 0.1483 -0.7182
vn 0.6877 0.3650 -0.6276
vn -0.8660 -0.5001 0.0034
vn -0.4053 -0.1712 0.8980
vn -0.5615 -0.3747 0.7378
vn -0.2805 -0.5442 0.7907
vn -0.8660 -0.5000 0.0034
vn -0.5147 -0.7991 -0.3108
vn -0.8035 -0.1412 -0.5783
vn 0.3988 -0.4858 -0.7778
vn 0.5472 0.2337 0.8037
vn 0.0162 -0.4767 -0.8789
vn -0.5069 -0.8151 -0.2805
vn 0.0475 -0.5681 -0.8216
vn 0.9375 -0.3397 0.0750
vn -0.0696 -0.9468 0.3142
vn 0.9375 -0.3398 0.0751
vn -0.0461 -0.0568 0.9973
vn -0.7489 -0.6498 -0.1302
vn -0.5068 -0.8152 -0.2805
vn -0.2804 -0.5442 0.7907
vn 0.5471 0.2337 0.8038
vn -0.5147 -0.7990 -0.3109
vn -0.9050 -0.3881 0.1740
vn -0.3663 -0.9282 0.0650
vn -0.5146 -0.7991 -0.3108
vn -0.5069 -0.8151 -0.2804
vn -0.7333 -0.6725 -0.1003
vn 0.5081 0.2807 0.8143
vn 0.4690 -0.1690 0.8669
vn 0.0006 -0.4895 0.8720
vn 0.5549 0.1927 0.8093
vn 0.4691 -0.1691 0.8668
vn 0.7892 0.6106 0.0667
vn 0.8594 0.4999 0.1073
vn 0.5550 0.1927 0.8092
vn 0.7892 0.6105 0.0667
vn 0.5393 0.4120 -0.7344
vn 0.7111 0.2920 -0.6396
vn 0.5784 -0.2407 -0.7795
vn -0.4834 -0.8717 -0.0804
vn 0.0006 -0.4058 -0.9140
vn 0.5393 -0.8408 -0.0473
vn -0.4834 -0.8717 -0.0803
vn 0.4691 -0.1690 0.8668
vn 0.5393 -0.8408 -0.0474
vn 0.0007 -0.4895 0.8720
vn -0.6942 -0.7154 -0.0793
vn 0.0007 -0.4058 -0.9140
vn -0.2258 -0.3802 -0.8969
vn 0.0006 -0.4057 -0.9140
vn -0.2649 -0.5000 0.8245
vn -0.3897 -0.3735 -0.8418
vn -0.7099 -0.2923 0.6408
vn -0.2648 -0.5000 0.8245
vn -0.6942 -0.7154 -0.0792
vn 0.5784 0.3827 -0.7205
vn -0.3897 -0.3736 -0.8418
vn -0.2257 -0.3803 -0.8969
vn 0.5628 0.4369 -0.7017
vn -0.3898 -0.3735 -0.8418
vn 0.5784 0.3827 -0.7204
vn 0.8282 0.5568 0.0637
vn 0.5784 0.3826 -0.7205
vn 0.8204 0.5690 0.0565
vn 0.5627 0.4369 -0.7017
vn 0.5472 0.2336 0.8038
vn 0.4379 0.4134 0.7984
vn 0.5471 0.2336 0.8038
vn -0.4991 -0.3153 -0.8072
vn 0.9922 0.0518 -0.1137
vn 0.6799 0.1484 -0.7182
vn 0.6798 0.1483 -0.7182
vn 0.5472 0.4833 -0.6834
vn -0.4990 -0.3153 -0.8072
vn 0.5471 0.4833 -0.6834
vn 0.6877 0.3649 -0.6276
vn 0.5472 0.4832 -0.6835
vn -0.5459 -0.2166 -0.8094
vn -0.6708 -0.1459 -0.7271
vn -0.8035 -0.1411 -0.5783
vn 0.6798 0.1484 -0.7182
vn -0.9597 -0.2507 0.1271
vn -0.5381 -0.3193 0.7800
vn -0.9050 -0.3882 0.1740
vn -0.7489 -0.6498 -0.1303
vn -0.5459 -0.2167 -0.8094
vn -0.4054 -0.1711 0.8980
vn -0.5381 -0.3193 0.7801
vn -0.4054 -0.1712 0.8980
vn 0.6486 -0.7329 -0.2054
vn -0.6708 -0.1460 -0.7271
vn 0.8126 0.0389 0.5816
vn 0.7189 -0.4495 0.5302
vn 0.6486 -0.7328 -0.2054
vn 0.8126 0.0390 0.5815
vn -0.4053 -0.1711 0.8980
vn 0.8126 0.0389 0.5815
vn -0.2805 -0.5441 0.7907
vn 0.6330 0.3158 0.7068
vn 0.5706 0.3555 0.7403
vn 0.8048 0.5797 0.1275
vn 0.5706 0.3554 0.7403
vn 0.5472 0.4832 -0.6834
vn 0.5471 0.4832 -0.6835
vn -0.5615 -0.3746 0.7378
vn -0.5381 -0.3194 0.7800
vn -0.1321 -0.9801 0.1481
vn -0.1321 -0.9801 0.1480
vn -0.5381 -0.3194 0.7801
vn 0.9844 0.1375 0.1102
vn 0.0163 -0.4767 -0.8789
vn 0.9843 0.1376 0.1101
vn 0.9375 -0.3397 0.0751
vn 0.9844 0.1376 0.1101
vn -0.0462 0.3502 0.9355
vn -0.0462 -0.0568 0.9973
vn -0.0462 -0.0569 0.9973
vn -0.9128 -0.4045 0.0558
vn -0.0697 -0.9468 0.3142
vn -0.9675 -0.1710 0.1863
vn -0.0462 0.3501 0.9356
vn -0.9675 -0.1709 0.1864
vn -0.7098 -0.2923 0.6408
vn -0.9675 -0.1710 0.1864
vn -0.5068 -0.8152 -0.2804
vn 0.0474 -0.5681 -0.8216
vn -0.9128 -0.4045 0.0557
vn 0.5705 0.3555 0.7404
vn 0.5394 0.4120 -0.7344
vn -0.2258 -0.3803 -0.8969
vn 0.7891 0.6106 0.0667
vn 0.8282 0.5568 0.0636
# 137 vertex normals

vt 0.9528 0.9307 0.0000
vt 0.9505 0.9369 0.0000
vt 0.9527 0.9297 0.0000
vt 0.9554 0.9264 0.0000
vt 0.9564 0.9247 0.0000
vt 0.9564 0.9265 0.0000
vt 0.9538 0.9247 0.0000
vt 0.9524 0.9233 0.0000
vt 0.9523 0.9252 0.0000
vt 0.9523 0.9258 0.0000
vt 0.9560 0.9208 0.0000
vt 0.9564 0.9208 0.0000
vt 0.9563 0.9219 0.0000
vt 0.9521 0.9276 0.0000
vt 0.9514 0.9256 0.0000
vt 0.9521 0.9263 0.0000
vt 0.9504 0.9238 0.0000
vt 0.9502 0.9242 0.0000
vt 0.9495 0.9239 0.0000
vt 0.9495 0.9252 0.0000
vt 0.9537 0.9257 0.0000
vt 0.9269 0.9272 0.0000
vt 0.9533 0.9207 0.0000
vt 0.9549 0.9206 0.0000
vt 0.9006 0.9615 0.0000
vt 0.9540 0.9206 0.0000
vt 0.9539 0.9282 0.0000
vt 0.9493 0.9442 0.0000
vt 0.9443 0.9427 0.0000
vt 0.9479 0.9416 0.0000
vt 0.9459 0.9491 0.0000
vt 0.9545 0.9469 0.0000
vt 0.9546 0.9518 0.0000
vt 0.9592 0.9443 0.0000
vt 0.9622 0.9494 0.0000
vt 0.9636 0.9427 0.0000
vt 0.9545 0.9396 0.0000
vt 0.9604 0.9414 0.0000
vt 0.9546 0.9402 0.0000
vt 0.9545 0.9359 0.0000
vt 0.9582 0.9373 0.0000
vt 0.9545 0.9292 0.0000
vt 0.9581 0.9363 0.0000
vt 0.9564 0.9295 0.0000
vt 0.9574 0.9386 0.0000
vt 0.9561 0.9306 0.0000
vt 0.9545 0.9405 0.0000
vt 0.9545 0.9313 0.0000
vt 0.9513 0.9390 0.0000
vt 0.9566 0.9258 0.0000
vt 0.9556 0.9247 0.0000
vt 0.9564 0.9271 0.0000
vt 0.9565 0.9253 0.0000
vt 0.9565 0.9233 0.0000
vt 0.9533 0.9231 0.0000
vt 0.9525 0.9209 0.0000
vt 0.9550 0.9231 0.0000
vt 0.9551 0.9248 0.0000
vt 0.9556 0.9218 0.0000
vt 0.9525 0.9243 0.0000
vt 0.9533 0.9221 0.0000
vt 0.9534 0.9242 0.0000
vt 0.9526 0.9221 0.0000
vt 0.9536 0.9266 0.0000
vt 0.9525 0.9266 0.0000
vt 0.9525 0.9273 0.0000
vt 0.9536 0.9276 0.0000
vt 0.9525 0.9249 0.0000
vt 0.9529 0.9209 0.0000
vt 0.9545 0.9207 0.0000
vt 0.9512 0.9260 0.0000
vt 0.9505 0.9274 0.0000
vt 0.9520 0.9296 0.0000
vt 0.9497 0.9248 0.0000
vt 0.9505 0.9264 0.0000
vt 0.9521 0.9282 0.0000
vt 0.9575 0.9396 0.0000
vt 0.9545 0.9416 0.0000
# 78 texture coords

o BrazoI
g BrazoI
usemtl Material_001
s off
f 1/1/1 2/2/2 3/3/3 
f 4/4/4 5/5/5 6/6/6 
f 7/7/7 8/8/8 9/9/9 
f 10/10/10 7/7/11 9/9/9 
f 11/11/12 12/12/13 13/13/14 
f 14/14/15 15/15/16 16/16/17 
f 17/17/18 18/18/19 19/19/20 
f 19/19/20 18/18/21 20/20/22 
f 10/10/10 16/16/17 21/21/23 
f 16/16/24 10/10/25 14/14/26 
f 11/22/27 22/23/28 12/24/13 
f 23/25/29 22/26/28 11/22/30 
f 11/22/30 13/13/14 23/25/29 
f 16/16/31 24/27/32 21/21/23 
f 25/28/33 26/29/34 27/30/35 
f 28/31/36 26/29/37 25/28/33 
f 29/32/38 28/31/36 25/28/33 
f 30/33/39 28/31/40 29/32/41 
f 31/34/42 30/33/39 29/32/38 
f 32/35/43 30/33/39 31/34/42 
f 33/36/44 32/35/43 31/34/42 
f 34/37/45 33/36/44 35/38/46 
f 36/39/47 33/36/44 34/37/45 
f 27/30/35 36/39/47 34/37/48 
f 26/29/49 36/39/50 27/30/51 
f 37/40/52 35/38/53 38/41/54 
f 34/37/48 35/38/55 37/40/52 
f 2/2/2 34/37/48 37/40/52 
f 27/30/51 34/37/45 2/2/56 
f 24/42/32 38/43/54 39/44/57 
f 37/40/52 38/43/54 24/42/32 
f 3/3/58 37/40/52 24/42/32 
f 2/2/59 37/40/60 3/3/3 
f 40/45/61 39/44/62 38/43/63 
f 41/46/64 39/44/65 40/45/66 
f 42/47/67 41/46/64 40/45/68 
f 43/48/69 41/46/70 42/47/67 
f 44/49/71 43/48/69 42/47/67 
f 1/1/72 43/48/69 44/49/71 
f 2/2/2 1/1/72 44/49/73 
f 39/44/62 41/46/64 45/50/74 
f 46/51/75 5/5/76 4/4/4 
f 13/13/14 5/5/77 46/51/75 
f 47/52/78 41/46/70 43/48/69 
f 45/50/79 41/46/64 47/52/80 
f 6/6/81 45/50/74 47/52/82 
f 48/53/83 45/50/74 6/6/81 
f 5/5/5 48/53/83 6/6/6 
f 5/5/76 49/54/84 48/53/83 
f 12/12/13 49/54/84 5/5/5 
f 13/13/14 12/12/85 5/5/86 
f 50/55/87 22/23/28 51/56/88 
f 49/57/84 22/23/89 50/55/87 
f 7/7/7 49/57/84 50/55/87 
f 48/58/83 49/57/84 7/7/11 
f 21/21/90 48/58/91 7/7/7 
f 45/50/74 48/58/83 21/21/90 
f 39/44/65 45/50/79 21/21/90 
f 8/8/92 50/55/87 51/56/93 
f 7/7/11 50/55/87 8/8/94 
f 13/13/14 52/59/95 23/25/29 
f 46/51/75 52/59/95 13/13/14 
f 22/23/89 49/57/96 12/24/13 
f 53/60/97 52/61/95 46/62/75 
f 54/63/98 52/61/99 53/60/100 
f 8/8/101 54/63/98 53/60/102 
f 51/56/93 54/63/98 8/8/101 
f 21/21/90 7/7/11 10/10/103 
f 4/64/4 55/65/104 46/62/75 
f 56/66/105 55/65/104 4/64/4 
f 57/67/106 56/66/105 4/64/4 
f 1/1/1 56/66/107 57/67/106 
f 43/48/69 1/1/1 57/67/106 
f 53/60/102 46/62/75 55/65/104 
f 47/52/108 4/4/4 6/6/81 
f 57/67/106 4/4/4 47/52/82 
f 43/48/69 57/67/106 47/52/109 
f 9/9/9 53/68/102 55/65/104 
f 8/8/8 53/68/100 9/9/110 
f 51/56/111 58/69/112 54/63/98 
f 22/23/28 58/69/113 51/56/114 
f 54/63/98 58/69/112 52/61/95 
f 52/61/95 22/23/28 23/70/29 
f 58/69/112 22/23/28 52/61/95 
f 10/10/10 55/65/104 56/66/105 
f 9/9/9 55/65/104 10/10/25 
f 59/71/115 15/15/16 14/14/71 
f 17/17/18 15/15/116 59/71/117 
f 18/18/118 17/17/18 59/71/119 
f 60/72/120 14/14/73 1/73/1 
f 59/71/117 14/14/73 60/72/120 
f 18/18/118 59/71/117 60/72/120 
f 18/18/21 60/72/120 20/20/121 
f 20/20/122 61/74/123 19/19/124 
f 62/75/125 61/74/123 20/20/122 
f 60/72/126 62/75/127 20/20/122 
f 3/76/128 62/75/129 60/72/120 
f 1/73/1 3/76/58 60/72/120 
f 16/16/130 3/76/58 24/27/32 
f 62/75/129 3/76/128 16/16/31 
f 15/15/16 62/75/129 16/16/130 
f 61/74/123 17/17/18 19/19/20 
f 15/15/16 17/17/131 61/74/132 
f 62/75/129 15/15/16 61/74/123 
f 56/66/105 14/14/71 10/10/10 
f 1/73/1 14/14/73 56/66/133 
f 39/44/57 21/21/90 24/42/32 
f 31/34/134 35/38/55 33/36/44 
f 38/41/135 35/38/55 31/34/134 
f 40/77/61 38/41/63 31/34/42 
f 29/32/136 40/77/61 31/34/42 
f 42/78/137 40/77/68 29/32/136 
f 25/28/33 42/78/67 29/32/41 
f 44/49/73 42/78/67 25/28/33 
f 27/30/51 44/49/73 25/28/33 
f 2/2/2 44/49/26 27/30/35 
# 0 polygons - 116 triangles

