# 3ds Max Wavefront OBJ Exporter v0.99 - (c)2007 guruware
# File Created: 08.05.2025 03:21:28

mtllib Perry_PiernaD.mtl

#
# object PiernaD
#

v  0.3019 -0.3586 -0.1625
v  0.1174 -0.3548 -0.1097
v  0.2903 -0.2616 -0.4831
v  0.0646 -0.2478 -0.4501
v  -0.2175 -0.5846 -0.0636
v  -0.0792 -0.1115 -0.4469
v  -0.1490 -0.6084 0.0532
v  -0.2664 -0.9394 0.2259
v  -0.2662 -0.9856 0.2357
v  -0.1978 -0.9507 0.0814
v  0.0957 -0.3192 0.6302
v  0.1217 -0.3873 0.2901
v  0.3182 -0.3959 0.3430
v  0.3177 -0.3000 0.6231
v  -0.0715 0.1900 0.4293
v  -0.1632 -0.5592 0.6086
v  -0.0821 -0.6112 0.3860
v  -0.3483 -0.5540 -0.0527
v  -0.2603 -0.9201 -0.1754
v  -0.3367 -0.9141 -0.1721
v  -0.5325 -0.5254 0.0708
v  -0.4559 -0.9176 -0.1521
v  -0.6382 -0.4941 0.3119
v  -0.5050 -0.9322 0.0296
v  -0.3806 -0.4959 0.5989
v  -0.4018 -0.9331 0.1591
v  -0.2022 -0.9399 -0.0573
v  -0.4092 -0.9908 0.1660
v  -0.6046 -1.1484 0.5365
v  -0.4231 -1.1554 0.6588
v  -0.2127 -1.1558 0.6661
v  -0.0251 -1.1456 0.4869
v  -0.1792 -1.1112 -0.1167
v  -0.3388 -1.1041 -0.2409
v  -0.2455 -1.1039 -0.2441
v  -0.4838 -1.1058 -0.2110
v  -0.5467 -1.1170 -0.0141
v  -0.5717 -1.1313 0.2363
v  -0.3103 0.0601 -0.2425
v  -0.3033 0.3397 0.0461
v  -0.1066 0.2705 -0.2739
v  -0.4356 0.1361 0.1062
v  -0.2050 -0.0544 0.5030
v  -0.1841 -0.9984 0.0766
# 44 vertices

vn -0.0306 -0.9831 -0.1805
vn 0.2661 -0.9373 -0.2249
vn -0.0618 -0.7680 -0.6375
vn -0.1633 -0.6763 -0.7183
vn 0.3364 -0.4028 -0.8512
vn -0.5225 -0.2390 -0.8185
vn -0.1634 -0.6763 -0.7182
vn 0.8516 -0.4507 -0.2675
vn 0.3363 -0.4028 -0.8513
vn 0.2661 -0.9374 -0.2248
vn 0.3363 -0.3775 0.8628
vn 0.2505 0.7938 0.5542
vn 0.9911 -0.0076 0.1330
vn 0.1567 -0.2471 0.9562
vn 0.3754 -0.9240 0.0731
vn 0.0006 -0.9913 0.1318
vn -0.0618 -0.5291 0.8463
vn 0.1568 -0.2471 0.9562
vn -0.5615 0.2275 0.7956
vn -0.0619 -0.5291 0.8463
vn 0.3754 -0.9240 0.0730
vn -0.0306 -0.9831 -0.1806
vn 0.2036 -0.4566 0.8661
vn 0.7736 -0.6036 0.1930
vn 0.3754 -0.9240 0.0733
vn -0.4288 -0.1075 -0.8970
vn 0.4925 0.3179 -0.8102
vn -0.1399 0.3750 -0.9164
vn -0.8270 0.2168 -0.5188
vn -0.6396 0.3350 -0.6919
vn -0.8269 0.2169 -0.5188
vn -0.9519 -0.1530 0.2656
vn -0.9753 -0.1834 0.1231
vn -0.9519 -0.1529 0.2656
vn -0.4988 -0.0493 0.8653
vn -0.6083 -0.2519 0.7526
vn -0.4987 -0.0494 0.8653
vn 0.2036 -0.4565 0.8661
vn -0.6083 -0.2519 0.7527
vn -0.6084 -0.2519 0.7526
vn 0.9600 0.0159 -0.2797
vn 0.3363 -0.4027 -0.8513
vn 0.9599 0.0160 -0.2797
vn 0.9600 0.0160 -0.2797
vn 0.8516 -0.4508 -0.2675
vn 0.7735 -0.6037 0.1930
vn -0.6161 0.5788 0.5342
vn -0.8191 -0.2030 0.5365
vn -0.3897 -0.1638 0.9063
vn 0.1958 -0.1449 0.9699
vn -0.6162 0.5788 0.5341
vn -0.3897 -0.1639 0.9062
vn -0.6162 0.5789 0.5341
vn 0.8907 -0.1472 0.4301
vn 0.1958 -0.1450 0.9699
vn 0.7735 -0.5676 -0.2820
vn -0.0775 -0.5435 -0.8358
vn 0.4379 -0.4540 -0.7760
vn -0.5615 -0.4878 -0.6684
vn 0.7735 -0.5675 -0.2820
vn -0.8270 -0.5603 -0.0470
vn -0.5615 -0.4878 -0.6685
vn 0.7736 -0.5675 -0.2820
vn -0.9206 -0.3733 -0.1144
vn -0.3898 -0.1638 0.9062
vn -0.8192 -0.2030 0.5364
vn 0.1957 -0.1449 0.9699
vn -0.9207 -0.3732 -0.1144
vn 0.8906 -0.1473 0.4302
vn -0.9207 -0.3732 -0.1145
vn -0.7567 0.2737 -0.5937
vn -0.9363 0.3511 0.0128
vn -0.7489 0.2971 -0.5924
vn -0.8660 0.4902 0.0990
vn -0.9362 0.3511 0.0128
vn -0.8660 0.4902 0.0989
vn -0.8660 0.4901 0.0990
vn -0.3897 0.4012 0.8290
vn 0.2037 -0.4565 0.8661
vn -0.3897 0.4011 0.8290
vn -0.5615 0.2274 0.7956
vn -0.9363 0.3510 0.0129
vn -0.8660 0.4901 0.0989
vn -0.9206 -0.3733 -0.1145
vn -0.8270 -0.5603 -0.0469
vn -0.5615 -0.4877 -0.6684
vn -0.0774 -0.5435 -0.8358
vn 0.4378 -0.4541 -0.7760
vn 0.7736 -0.5675 -0.2819
vn 0.9297 0.3671 0.0294
vn -0.6161 0.5788 0.5341
vn 0.3364 -0.3774 0.8628
vn -0.6161 0.5789 0.5341
vn -0.9206 -0.3733 -0.1146
vn 0.8907 -0.1473 0.4301
vn 0.2504 0.7938 0.5542
# 96 vertex normals

vt 0.9736 0.9041 0.0000
vt 0.9621 0.9042 0.0000
vt 0.9775 0.9057 0.0000
vt 0.9713 0.9061 0.0000
vt 0.9563 0.8996 0.0000
vt 0.9685 0.9089 0.0000
vt 0.9525 0.8992 0.0000
vt 0.5109 0.1641 0.0000
vt 0.5104 0.1589 0.0000
vt 0.5365 0.2073 0.0000
vt 0.9353 0.9059 0.0000
vt 0.9400 0.9040 0.0000
vt 0.9318 0.9039 0.0000
vt 0.9306 0.9062 0.0000
vt 0.9419 0.9161 0.0000
vt 0.9396 0.9017 0.0000
vt 0.9421 0.9003 0.0000
vt 0.9558 0.9002 0.0000
vt 0.9592 0.8918 0.0000
vt 0.9586 0.8920 0.0000
vt 0.9531 0.9009 0.0000
vt 0.9576 0.8919 0.0000
vt 0.9490 0.9008 0.0000
vt 0.9537 0.8918 0.0000
vt 0.9427 0.9009 0.0000
vt 0.9506 0.8920 0.0000
vt 0.9400 0.9001 0.0000
vt 0.9481 0.8919 0.0000
vt 0.9560 0.8916 0.0000
vt 0.9516 0.8915 0.0000
vt 0.9420 0.8987 0.0000
vt 0.4694 0.1853 0.0000
vt 0.4066 0.0712 0.0000
vt 0.4495 0.0365 0.0000
vt 0.5136 0.0271 0.0000
vt 0.5670 0.0685 0.0000
vt 0.5479 0.2618 0.0000
vt 0.5036 0.3062 0.0000
vt 0.5320 0.3042 0.0000
vt 0.4587 0.3013 0.0000
vt 0.4331 0.2410 0.0000
vt 0.4172 0.1626 0.0000
vt 0.4482 0.0242 0.0000
vt 0.3973 0.0687 0.0000
vt 0.5117 0.0152 0.0000
vt 0.5745 0.0659 0.0000
vt 0.9614 0.9127 0.0000
vt 0.9546 0.9188 0.0000
vt 0.9649 0.9170 0.0000
vt 0.9530 0.9146 0.0000
vt 0.9492 0.9029 0.0000
vt 0.9424 0.9112 0.0000
vt 0.9426 0.9034 0.0000
vt 0.4254 0.1596 0.0000
vt 0.4386 0.2357 0.0000
vt 0.4451 0.2337 0.0000
vt 0.4622 0.2962 0.0000
vt 0.4661 0.2897 0.0000
vt 0.5034 0.3015 0.0000
vt 0.5028 0.2923 0.0000
vt 0.5294 0.2998 0.0000
vt 0.5261 0.2908 0.0000
vt 0.5441 0.2575 0.0000
vt 0.5397 0.2513 0.0000
vt 0.5405 0.2062 0.0000
vt 0.4721 0.1896 0.0000
vt 0.5675 0.0671 0.0000
# 67 texture coords

o PiernaD
g PiernaD
usemtl Material_001
s off
f 1/1/1 2/2/2 3/3/3 
f 4/4/4 5/5/5 6/6/6 
f 4/4/7 7/7/8 5/5/9 
f 2/2/10 7/7/8 4/4/7 
f 8/8/11 9/9/12 10/10/13 
f 11/11/14 12/12/15 13/13/16 
f 14/14/17 11/11/18 13/13/16 
f 15/15/19 11/11/14 14/14/20 
f 1/1/1 12/12/15 2/2/2 
f 13/13/16 12/12/21 1/1/22 
f 4/4/4 3/3/3 2/2/2 
f 12/12/15 16/16/23 17/17/24 
f 11/11/18 16/16/23 12/12/15 
f 2/2/10 17/17/24 7/7/8 
f 12/12/25 17/17/24 2/2/2 
f 18/18/26 5/5/9 19/19/27 
f 20/20/28 18/18/26 19/19/27 
f 21/21/29 18/18/26 20/20/28 
f 22/22/30 21/21/31 20/20/28 
f 23/23/32 21/21/29 22/22/30 
f 24/24/33 23/23/34 22/22/30 
f 25/25/35 23/23/34 24/24/33 
f 26/26/36 25/25/37 24/24/33 
f 16/27/38 25/25/37 26/26/39 
f 8/28/11 16/27/38 26/26/40 
f 27/29/41 19/19/27 5/5/42 
f 7/7/8 27/29/43 5/5/42 
f 10/30/13 27/29/44 7/7/45 
f 17/31/46 10/30/13 7/7/8 
f 8/28/11 10/30/13 17/31/24 
f 16/27/23 8/28/11 17/31/24 
f 28/32/47 29/33/48 30/34/49 
f 31/35/50 28/32/51 30/34/52 
f 9/9/12 28/32/53 31/35/50 
f 32/36/54 9/9/12 31/35/55 
f 33/37/56 34/38/57 35/39/58 
f 36/40/59 34/38/57 33/37/60 
f 37/41/61 36/40/62 33/37/63 
f 38/42/64 30/43/65 29/44/66 
f 31/45/67 30/43/52 38/42/68 
f 32/46/69 31/45/55 38/42/70 
f 39/47/71 40/48/72 41/49/73 
f 42/50/74 40/48/75 39/47/71 
f 21/21/31 42/50/76 39/47/71 
f 23/51/32 42/50/77 21/21/29 
f 39/47/71 41/49/73 6/6/6 
f 43/52/78 16/16/79 11/11/18 
f 15/15/19 43/52/78 11/11/18 
f 42/50/77 43/52/80 15/15/81 
f 40/48/82 42/50/77 15/15/81 
f 18/18/26 6/6/6 5/5/42 
f 39/47/71 6/6/6 18/18/26 
f 21/21/29 39/47/71 18/18/26 
f 43/52/78 25/53/37 16/16/38 
f 23/51/34 25/53/37 43/52/78 
f 42/50/83 23/51/32 43/52/80 
f 28/32/51 38/54/84 29/33/48 
f 37/55/85 38/54/64 28/32/51 
f 24/56/33 37/55/61 28/32/51 
f 36/57/59 37/55/85 24/56/33 
f 22/58/30 36/57/86 24/56/33 
f 34/59/57 36/57/59 22/58/30 
f 20/60/28 34/59/87 22/58/30 
f 35/61/88 34/59/87 20/60/28 
f 19/62/27 35/61/88 20/60/28 
f 33/63/89 35/61/58 19/62/27 
f 27/64/43 33/63/56 19/62/27 
f 44/65/90 33/63/56 27/64/44 
f 10/10/13 44/65/90 27/64/44 
f 9/9/12 44/65/90 10/10/13 
f 28/32/91 26/66/36 24/56/33 
f 8/8/92 26/66/40 28/32/91 
f 9/9/12 8/8/11 28/32/93 
f 38/42/68 33/37/60 32/46/69 
f 37/41/85 33/37/63 38/42/94 
f 44/65/90 32/67/95 33/63/60 
f 9/9/96 32/67/69 44/65/90 
# 0 polygons - 77 triangles

