# 3ds Max Wavefront OBJ Exporter v0.99 - (c)2007 guruware
# File Created: 08.05.2025 03:22:26

mtllib Perry_PiernaI.mtl

#
# object PiernaI
#

v  -0.1417 -0.2299 -0.6103
v  0.0020 -0.0936 -0.6071
v  0.1403 -0.5667 -0.2238
v  0.0718 -0.5904 -0.1070
v  -0.1946 -0.3369 -0.2699
v  0.1892 -0.9214 0.0657
v  0.1206 -0.9327 -0.0788
v  0.1891 -0.9676 0.0755
v  0.0861 -0.5412 0.4484
v  -0.1989 -0.3693 0.1299
v  0.0049 -0.5933 0.2258
v  -0.1728 -0.3012 0.4700
v  0.2711 -0.5360 -0.2129
v  0.1831 -0.9021 -0.3356
v  0.2596 -0.8961 -0.3323
v  0.4553 -0.5075 -0.0894
v  0.3787 -0.8996 -0.3123
v  0.5610 -0.4762 0.1517
v  0.4278 -0.9143 -0.1306
v  0.3034 -0.4779 0.4387
v  0.3246 -0.9152 -0.0011
v  0.1250 -0.9220 -0.2175
v  0.3320 -0.9728 0.0058
v  0.1356 -1.1379 0.5059
v  -0.0521 -1.1276 0.3267
v  0.1020 -1.0932 -0.2769
v  0.4066 -1.0878 -0.3712
v  0.4695 -1.0991 -0.1743
v  0.2616 -1.0861 -0.4011
v  0.1684 -1.0859 -0.4043
v  0.4945 -1.1133 0.0761
v  0.3459 -1.1374 0.4986
v  0.5274 -1.1305 0.3763
v  0.3584 0.1541 -0.0540
v  0.2331 0.0780 -0.4027
v  0.2261 0.3577 -0.1141
v  0.1278 -0.0365 0.3428
v  -0.0056 0.2079 0.2691
v  0.1069 -0.9805 -0.0836
# 39 vertices

vn 0.1802 -0.6723 -0.7180
vn 0.5393 -0.2057 -0.8166
vn -0.3273 -0.4094 -0.8516
vn -0.8348 -0.4803 -0.2691
vn 0.1802 -0.6722 -0.7181
vn -0.2492 -0.9419 -0.2251
vn -0.8347 -0.4803 -0.2692
vn -0.3273 -0.3865 0.8623
vn -0.9753 -0.1834 0.1231
vn -0.2336 0.7987 0.5545
vn -0.1867 -0.4646 0.8656
vn -0.3663 -0.9276 0.0728
vn -0.7567 -0.6250 0.1918
vn -0.1399 -0.2597 0.9555
vn -0.3663 -0.9276 0.0729
vn -0.1868 -0.4646 0.8656
vn -0.8348 -0.4803 -0.2692
vn 0.4456 -0.0509 -0.8938
vn -0.4756 0.3465 -0.8085
vn -0.3273 -0.4093 -0.8517
vn 0.1568 0.3672 -0.9168
vn 0.8438 0.1124 -0.5247
vn 0.6564 0.2953 -0.6942
vn 0.8438 0.1123 -0.5248
vn 0.9623 -0.0155 0.2716
vn 0.8438 0.1123 -0.5247
vn 0.9911 -0.0076 0.1330
vn 0.5112 -0.0489 0.8581
vn 0.9911 -0.0075 0.1330
vn 0.6174 -0.2234 0.7542
vn 0.5113 -0.0489 0.8580
vn 0.6174 -0.2234 0.7543
vn -0.3273 -0.3865 0.8622
vn -0.1867 -0.4645 0.8657
vn -0.9441 0.1892 -0.2701
vn 0.6252 0.5696 0.5336
vn -0.3272 -0.3866 0.8623
vn -0.2336 0.7988 0.5545
vn 0.6252 0.5695 0.5336
vn -0.1790 -0.1751 0.9681
vn -0.8738 -0.2362 0.4251
vn -0.1789 -0.1751 0.9682
vn -0.7567 -0.5892 -0.2832
vn 0.5784 -0.4692 -0.6674
vn 0.8438 -0.5347 -0.0455
vn 0.0943 -0.5410 -0.8357
vn 0.5783 -0.4692 -0.6674
vn -0.4210 -0.4684 -0.7768
vn 0.9297 -0.3505 -0.1132
vn 0.4064 -0.0520 0.9122
vn 0.8360 -0.0725 0.5439
vn 0.4065 -0.0521 0.9122
vn 0.8829 0.4595 0.0972
vn 0.7736 0.2119 -0.5973
vn 0.9531 0.3024 0.0101
vn 0.7736 0.2119 -0.5972
vn 0.4066 0.3859 0.8281
vn 0.8829 0.4594 0.0972
vn 0.5784 0.1896 0.7934
vn 0.5783 0.1896 0.7935
vn 0.4457 -0.0509 -0.8937
vn 0.8438 0.1124 -0.5248
vn 0.5393 -0.2058 -0.8166
vn 0.5394 -0.2058 -0.8165
vn -0.1868 -0.4645 0.8656
vn 0.9297 -0.3505 -0.1131
vn 0.8438 -0.5347 -0.0454
vn 0.6253 0.5695 0.5336
vn 0.5783 -0.4691 -0.6674
vn 0.6564 0.2954 -0.6942
vn 0.0943 -0.5411 -0.8357
vn -0.4210 -0.4683 -0.7768
vn -0.4756 0.3465 -0.8086
vn -0.4209 -0.4684 -0.7768
vn -0.7567 -0.5893 -0.2832
vn -0.4756 0.3464 -0.8086
vn -0.7567 -0.5892 -0.2833
vn -0.9128 0.4071 0.0317
vn -0.9128 0.4071 0.0316
vn 0.4065 -0.0520 0.9122
vn -0.8738 -0.2362 0.4250
vn -0.7567 -0.5893 -0.2833
vn -0.8738 -0.2362 0.4252
# 83 vertex normals

vt 0.9713 0.9061 0.0000
vt 0.9685 0.9089 0.0000
vt 0.9563 0.8996 0.0000
vt 0.9525 0.8992 0.0000
vt 0.9621 0.9042 0.0000
vt 0.5109 0.1641 0.0000
vt 0.5365 0.2073 0.0000
vt 0.5104 0.1589 0.0000
vt 0.9396 0.9017 0.0000
vt 0.9400 0.9040 0.0000
vt 0.9421 0.9003 0.0000
vt 0.9353 0.9059 0.0000
vt 0.9558 0.9002 0.0000
vt 0.9592 0.8918 0.0000
vt 0.9586 0.8920 0.0000
vt 0.9531 0.9009 0.0000
vt 0.9576 0.8919 0.0000
vt 0.9490 0.9008 0.0000
vt 0.9537 0.8918 0.0000
vt 0.9427 0.9009 0.0000
vt 0.9506 0.8920 0.0000
vt 0.9400 0.9001 0.0000
vt 0.9481 0.8919 0.0000
vt 0.9560 0.8916 0.0000
vt 0.9516 0.8915 0.0000
vt 0.9420 0.8987 0.0000
vt 0.4694 0.1853 0.0000
vt 0.4721 0.1896 0.0000
vt 0.5136 0.0271 0.0000
vt 0.5670 0.0685 0.0000
vt 0.5479 0.2618 0.0000
vt 0.4587 0.3013 0.0000
vt 0.4331 0.2410 0.0000
vt 0.5036 0.3062 0.0000
vt 0.5320 0.3042 0.0000
vt 0.4172 0.1626 0.0000
vt 0.5117 0.0152 0.0000
vt 0.5745 0.0659 0.0000
vt 0.4482 0.0242 0.0000
vt 0.3973 0.0687 0.0000
vt 0.9530 0.9146 0.0000
vt 0.9614 0.9127 0.0000
vt 0.9546 0.9188 0.0000
vt 0.9492 0.9029 0.0000
vt 0.9424 0.9112 0.0000
vt 0.9426 0.9034 0.0000
vt 0.9419 0.9161 0.0000
vt 0.4066 0.0712 0.0000
vt 0.4254 0.1596 0.0000
vt 0.4386 0.2357 0.0000
vt 0.4451 0.2337 0.0000
vt 0.4622 0.2962 0.0000
vt 0.4661 0.2897 0.0000
vt 0.5034 0.3015 0.0000
vt 0.5028 0.2923 0.0000
vt 0.5294 0.2998 0.0000
vt 0.5261 0.2908 0.0000
vt 0.5441 0.2575 0.0000
vt 0.5397 0.2513 0.0000
vt 0.5405 0.2062 0.0000
vt 0.4495 0.0365 0.0000
vt 0.5675 0.0671 0.0000
# 62 texture coords

o PiernaI
g PiernaI
usemtl Material_001
s off
f 1/1/1 2/2/2 3/3/3 
f 4/4/4 1/1/5 3/3/3 
f 5/5/6 1/1/1 4/4/7 
f 6/6/8 7/7/9 8/8/10 
f 9/9/11 10/10/12 11/11/13 
f 12/12/14 10/10/15 9/9/16 
f 11/11/13 5/5/6 4/4/17 
f 10/10/12 5/5/6 11/11/13 
f 13/13/18 14/14/19 3/3/20 
f 15/15/21 14/14/19 13/13/18 
f 16/16/22 15/15/21 13/13/18 
f 17/17/23 15/15/21 16/16/24 
f 18/18/25 17/17/23 16/16/26 
f 19/19/27 17/17/23 18/18/25 
f 20/20/28 19/19/29 18/18/25 
f 21/21/30 19/19/27 20/20/31 
f 9/22/11 21/21/32 20/20/28 
f 6/23/33 21/21/30 9/22/34 
f 22/24/35 3/3/3 14/14/19 
f 4/4/17 3/3/3 22/24/35 
f 7/25/9 4/4/17 22/24/35 
f 11/26/13 4/4/17 7/25/9 
f 6/23/8 11/26/13 7/25/9 
f 9/22/16 11/26/13 6/23/8 
f 23/27/36 21/28/30 6/6/37 
f 8/8/38 23/27/39 6/6/33 
f 24/29/40 23/27/36 8/8/10 
f 25/30/41 24/29/42 8/8/10 
f 26/31/43 27/32/44 28/33/45 
f 29/34/46 27/32/47 26/31/43 
f 30/35/48 29/34/46 26/31/43 
f 31/36/49 24/37/40 25/38/41 
f 32/39/50 24/37/42 31/36/49 
f 33/40/51 32/39/52 31/36/49 
f 34/41/53 35/42/54 36/43/55 
f 16/16/26 35/42/56 34/41/53 
f 18/44/25 16/16/22 34/41/53 
f 37/45/57 20/46/28 18/44/25 
f 34/41/58 37/45/57 18/44/25 
f 38/47/59 37/45/57 34/41/58 
f 36/43/55 38/47/60 34/41/58 
f 13/13/61 35/42/56 16/16/62 
f 2/2/63 35/42/54 13/13/18 
f 3/3/3 2/2/64 13/13/18 
f 37/45/57 9/9/11 20/46/28 
f 12/12/14 9/9/65 37/45/57 
f 38/47/59 12/12/14 37/45/57 
f 23/27/36 33/48/51 31/49/66 
f 28/50/67 23/27/68 31/49/66 
f 19/51/27 23/27/36 28/50/45 
f 27/52/69 19/51/27 28/50/45 
f 17/53/23 19/51/27 27/52/69 
f 29/54/46 17/53/70 27/52/47 
f 15/55/21 17/53/70 29/54/71 
f 30/56/72 15/55/21 29/54/46 
f 14/57/73 15/55/21 30/56/74 
f 26/58/75 14/57/76 30/56/48 
f 22/59/35 14/57/76 26/58/77 
f 39/60/78 22/59/35 26/58/43 
f 7/7/9 22/59/35 39/60/78 
f 8/8/10 7/7/9 39/60/79 
f 23/27/36 32/61/50 33/48/51 
f 24/29/40 32/61/80 23/27/36 
f 31/36/49 26/31/43 28/33/45 
f 25/38/81 26/31/82 31/36/49 
f 25/62/41 39/60/78 26/58/75 
f 8/8/10 39/60/79 25/62/83 
f 19/51/27 21/28/30 23/27/39 
# 0 polygons - 68 triangles

