# 3ds Max Wavefront OBJ Exporter v0.99 - (c)2007 guruware
# File Created: 07.05.2025 17:38:38

mtllib dados_cubo2.mtl

#
# object polySurface2
#

v  0.2593 -0.2593 0.3458
v  0.0000 -0.2853 0.3458
v  0.0000 -0.3205 0.3205
v  0.2593 -0.3205 0.3205
v  0.0000 -0.3458 0.2853
v  0.2593 -0.3458 0.2593
v  -0.2853 -0.0000 0.3458
v  -0.2593 0.2593 0.3458
v  -0.3205 0.2593 0.3205
v  -0.3205 -0.0000 0.3205
v  -0.3458 0.2593 0.2593
v  -0.3458 -0.0000 0.2853
v  0.0000 0.3458 0.2853
v  -0.2593 0.3458 0.2593
v  -0.2593 0.3205 0.3205
v  0.0000 0.3205 0.3205
v  0.0000 0.2853 0.3458
v  -0.2853 0.3458 0.0000
v  -0.2593 0.3458 -0.2593
v  -0.3205 0.3205 -0.2593
v  -0.3205 0.3205 0.0000
v  -0.3458 0.2593 -0.2593
v  -0.3458 0.2853 0.0000
v  0.2593 0.2593 -0.3458
v  0.0000 0.2853 -0.3458
v  0.0000 0.3205 -0.3205
v  0.2593 0.3205 -0.3205
v  0.0000 0.3458 -0.2853
v  0.2593 0.3458 -0.2593
v  -0.2853 0.0000 -0.3458
v  -0.2593 -0.2593 -0.3458
v  -0.3205 -0.2593 -0.3205
v  -0.3205 0.0000 -0.3205
v  -0.3458 -0.2593 -0.2593
v  -0.3458 0.0000 -0.2853
v  0.0000 -0.3458 -0.2853
v  -0.2593 -0.3458 -0.2593
v  -0.2593 -0.3205 -0.3205
v  0.0000 -0.3205 -0.3205
v  0.0000 -0.2853 -0.3458
v  -0.3458 -0.2853 -0.0000
v  -0.3205 -0.3205 -0.2593
v  -0.3205 -0.3205 -0.0000
v  -0.2853 -0.3458 -0.0000
v  0.2853 -0.0000 0.3458
v  0.3205 -0.2593 0.3205
v  0.3205 -0.0000 0.3205
v  0.3458 -0.2593 0.2593
v  0.3458 -0.0000 0.2853
v  0.2853 0.3458 0.0000
v  0.3205 0.3205 0.0000
v  0.3205 0.3205 -0.2593
v  0.3458 0.2853 0.0000
v  0.3458 0.2593 -0.2593
v  0.2593 -0.2593 -0.3458
v  0.2853 0.0000 -0.3458
v  0.3205 0.0000 -0.3205
v  0.3205 -0.2593 -0.3205
v  0.3458 0.0000 -0.2853
v  0.3458 -0.2593 -0.2593
v  0.2853 -0.3458 -0.0000
v  0.2593 -0.3458 -0.2593
v  0.3205 -0.3205 -0.2593
v  0.3205 -0.3205 -0.0000
v  0.3458 -0.2853 -0.0000
v  0.2593 0.2593 0.3458
v  0.0000 -0.0000 0.3458
v  0.0000 0.3458 0.0000
v  0.0000 0.0000 -0.3458
v  0.0000 -0.3458 -0.0000
v  0.3458 -0.0000 -0.0000
v  -0.3458 -0.0000 -0.0000
v  0.2593 0.3458 0.2593
v  0.3458 0.2593 0.2593
v  -0.2593 -0.3458 0.2593
v  -0.2593 0.2593 -0.3458
v  -0.2593 -0.2593 0.3458
v  -0.3458 -0.2593 0.2593
v  -0.2593 -0.3205 0.3205
v  0.2593 0.3205 0.3205
v  -0.2593 0.3205 -0.3205
v  0.2593 -0.3205 -0.3205
v  -0.3205 -0.2593 0.3205
v  0.3205 0.2593 0.3205
v  -0.3205 0.3205 0.2593
v  0.3205 0.3205 0.2593
v  -0.3205 0.2593 -0.3205
v  0.3205 0.2593 -0.3205
v  -0.3205 -0.3205 0.2593
v  0.3205 -0.3205 0.2593
v  -0.3092 -0.3092 0.3092
v  -0.3092 0.3092 0.3092
v  -0.3092 0.3092 -0.3092
v  -0.3092 -0.3092 -0.3092
v  0.3092 -0.3092 0.3092
v  0.3092 0.3092 0.3092
v  0.3092 0.3092 -0.3092
v  0.3092 -0.3092 -0.3092
# 98 vertices

vn 0.0681 -0.0681 0.9954
vn 0.0000 -0.0835 0.9965
vn 0.0000 -0.7071 0.7071
vn 0.0838 -0.7046 0.7046
vn 0.0000 -0.9965 0.0835
vn 0.0681 -0.9954 0.0681
vn -0.0835 -0.0000 0.9965
vn -0.0681 0.0681 0.9954
vn -0.7046 0.0838 0.7046
vn -0.7071 -0.0000 0.7071
vn -0.9954 0.0681 0.0681
vn -0.9965 -0.0000 0.0835
vn 0.0000 0.9965 0.0835
vn -0.0681 0.9954 0.0681
vn -0.0838 0.7046 0.7046
vn 0.0000 0.7071 0.7071
vn 0.0000 0.0835 0.9965
vn -0.0835 0.9965 0.0000
vn -0.0681 0.9954 -0.0681
vn -0.7046 0.7046 -0.0838
vn -0.7071 0.7071 0.0000
vn -0.9954 0.0681 -0.0681
vn -0.9965 0.0835 0.0000
vn 0.0681 0.0681 -0.9954
vn 0.0000 0.0835 -0.9965
vn 0.0000 0.7071 -0.7071
vn 0.0838 0.7046 -0.7046
vn 0.0000 0.9965 -0.0835
vn 0.0681 0.9954 -0.0681
vn -0.0835 0.0000 -0.9965
vn -0.0681 -0.0681 -0.9954
vn -0.7046 -0.0838 -0.7046
vn -0.7071 0.0000 -0.7071
vn -0.9954 -0.0681 -0.0681
vn -0.9965 0.0000 -0.0835
vn 0.0000 -0.9965 -0.0835
vn -0.0681 -0.9954 -0.0681
vn -0.0838 -0.7046 -0.7046
vn 0.0000 -0.7071 -0.7071
vn 0.0000 -0.0835 -0.9965
vn -0.9965 -0.0835 -0.0000
vn -0.7046 -0.7046 -0.0838
vn -0.7071 -0.7071 -0.0000
vn -0.0835 -0.9965 -0.0000
vn 0.0835 -0.0000 0.9965
vn 0.7046 -0.0838 0.7046
vn 0.7071 -0.0000 0.7071
vn 0.9954 -0.0681 0.0681
vn 0.9965 -0.0000 0.0835
vn 0.0835 0.9965 0.0000
vn 0.7071 0.7071 0.0000
vn 0.7046 0.7046 -0.0838
vn 0.9965 0.0835 0.0000
vn 0.9954 0.0681 -0.0681
vn 0.0681 -0.0681 -0.9954
vn 0.0835 0.0000 -0.9965
vn 0.7071 0.0000 -0.7071
vn 0.7046 -0.0838 -0.7046
vn 0.9965 0.0000 -0.0835
vn 0.9954 -0.0681 -0.0681
vn 0.0835 -0.9965 -0.0000
vn 0.0681 -0.9954 -0.0681
vn 0.7046 -0.7046 -0.0838
vn 0.7071 -0.7071 -0.0000
vn 0.9965 -0.0835 -0.0000
vn 0.0681 0.0681 0.9954
vn 0.0000 -0.0000 1.0000
vn 0.0000 1.0000 0.0000
vn 0.0000 0.0000 -1.0000
vn 0.0000 -1.0000 -0.0000
vn 1.0000 0.0000 -0.0000
vn -1.0000 0.0000 -0.0000
vn 0.0681 0.9954 0.0681
vn 0.9954 0.0681 0.0681
vn -0.0681 -0.9954 0.0681
vn -0.0681 0.0681 -0.9954
vn -0.0681 -0.0681 0.9954
vn -0.9954 -0.0681 0.0681
vn -0.0838 -0.7046 0.7046
vn 0.0838 0.7046 0.7046
vn -0.0838 0.7046 -0.7046
vn 0.0838 -0.7046 -0.7046
vn -0.7046 -0.0838 0.7046
vn 0.7046 0.0838 0.7046
vn -0.7046 0.7046 0.0838
vn 0.7046 0.7046 0.0838
vn -0.7046 0.0838 -0.7046
vn 0.7046 0.0838 -0.7046
vn -0.7046 -0.7046 0.0838
vn 0.7046 -0.7046 0.0838
vn -0.5774 -0.5774 0.5773
vn -0.5774 0.5773 0.5774
vn -0.5774 0.5774 -0.5773
vn -0.5774 -0.5773 -0.5774
vn 0.5774 -0.5774 0.5773
vn 0.5774 0.5773 0.5774
vn 0.5774 0.5774 -0.5773
vn 0.5774 -0.5773 -0.5774
# 98 vertex normals

vt 0.9245 0.6951 0.0000
vt 0.8974 0.6925 0.0000
vt 0.8974 0.6889 0.0000
vt 0.9245 0.6889 0.0000
vt 0.8974 0.6854 0.0000
vt 0.9245 0.6827 0.0000
vt 0.8676 0.7214 0.0000
vt 0.8703 0.7477 0.0000
vt 0.8640 0.7477 0.0000
vt 0.8640 0.7214 0.0000
vt 0.8315 0.7529 0.0000
vt 0.8578 0.7529 0.0000
vt 0.8578 0.7592 0.0000
vt 0.8315 0.7565 0.0000
vt 0.8974 0.7574 0.0000
vt 0.8703 0.7601 0.0000
vt 0.8703 0.7539 0.0000
vt 0.8974 0.7539 0.0000
vt 0.8974 0.7503 0.0000
vt 0.8676 0.7863 0.0000
vt 0.8703 0.8126 0.0000
vt 0.8640 0.8130 0.0000
vt 0.8640 0.7863 0.0000
vt 0.8578 0.8134 0.0000
vt 0.8604 0.7863 0.0000
vt 0.9245 0.8250 0.0000
vt 0.8974 0.8224 0.0000
vt 0.8974 0.8188 0.0000
vt 0.9245 0.8188 0.0000
vt 0.8974 0.8152 0.0000
vt 0.9245 0.8126 0.0000
vt 0.8676 0.8513 0.0000
vt 0.8703 0.8776 0.0000
vt 0.8640 0.8776 0.0000
vt 0.8640 0.8513 0.0000
vt 0.8315 0.8198 0.0000
vt 0.8052 0.8198 0.0000
vt 0.8052 0.8134 0.0000
vt 0.8315 0.8161 0.0000
vt 0.8974 0.6275 0.0000
vt 0.8703 0.6302 0.0000
vt 0.8703 0.6240 0.0000
vt 0.8974 0.6240 0.0000
vt 0.8974 0.8837 0.0000
vt 0.8703 0.8837 0.0000
vt 0.8974 0.8802 0.0000
vt 0.8026 0.7863 0.0000
vt 0.7990 0.8134 0.0000
vt 0.7990 0.7863 0.0000
vt 0.8640 0.6564 0.0000
vt 0.8640 0.6302 0.0000
vt 0.8676 0.6564 0.0000
vt 0.9272 0.7214 0.0000
vt 0.9309 0.6951 0.0000
vt 0.9309 0.7214 0.0000
vt 0.9634 0.7528 0.0000
vt 0.9896 0.7528 0.0000
vt 0.9896 0.7592 0.0000
vt 0.9634 0.7565 0.0000
vt 0.9272 0.7863 0.0000
vt 0.9309 0.7863 0.0000
vt 0.9309 0.8130 0.0000
vt 0.9345 0.7863 0.0000
vt 0.9371 0.8135 0.0000
vt 0.9245 0.8776 0.0000
vt 0.9272 0.8513 0.0000
vt 0.9309 0.8513 0.0000
vt 0.9309 0.8776 0.0000
vt 0.9896 0.8198 0.0000
vt 0.9634 0.8198 0.0000
vt 0.9634 0.8162 0.0000
vt 0.9896 0.8135 0.0000
vt 0.9272 0.6564 0.0000
vt 0.9245 0.6302 0.0000
vt 0.9309 0.6302 0.0000
vt 0.9309 0.6564 0.0000
vt 0.9958 0.7863 0.0000
vt 0.9958 0.8135 0.0000
vt 0.9923 0.7863 0.0000
vt 0.9245 0.7477 0.0000
vt 0.8974 0.7214 0.0000
vt 0.8974 0.7863 0.0000
vt 0.8974 0.8513 0.0000
vt 0.8974 0.6564 0.0000
vt 0.9634 0.7863 0.0000
vt 0.8315 0.7863 0.0000
vt 0.9245 0.7601 0.0000
vt 0.9371 0.7592 0.0000
vt 0.8703 0.6827 0.0000
vt 0.8703 0.8250 0.0000
vt 0.8703 0.6951 0.0000
vt 0.8052 0.7592 0.0000
vt 0.8703 0.6889 0.0000
vt 0.9245 0.7539 0.0000
vt 0.8703 0.8188 0.0000
vt 0.9245 0.6240 0.0000
vt 0.9245 0.8837 0.0000
vt 0.8052 0.7529 0.0000
vt 0.8640 0.6951 0.0000
vt 0.9309 0.7477 0.0000
vt 0.9371 0.7528 0.0000
vt 0.8640 0.7596 0.0000
vt 0.9309 0.7596 0.0000
vt 0.8578 0.8198 0.0000
vt 0.8640 0.8250 0.0000
vt 0.9309 0.8250 0.0000
vt 0.9371 0.8198 0.0000
vt 0.8640 0.6827 0.0000
vt 0.7990 0.7592 0.0000
vt 0.9958 0.7592 0.0000
vt 0.9309 0.6827 0.0000
vt 0.8002 0.7540 0.0000
vt 0.8651 0.6878 0.0000
vt 0.8651 0.6901 0.0000
vt 0.8628 0.7540 0.0000
vt 0.8651 0.7527 0.0000
vt 0.8651 0.7550 0.0000
vt 0.8628 0.8186 0.0000
vt 0.8651 0.8177 0.0000
vt 0.8651 0.8199 0.0000
vt 0.8002 0.8186 0.0000
vt 0.8651 0.8826 0.0000
vt 0.8651 0.6251 0.0000
vt 0.9297 0.6901 0.0000
vt 0.9297 0.6878 0.0000
vt 0.9947 0.7540 0.0000
vt 0.9297 0.7527 0.0000
vt 0.9320 0.7540 0.0000
vt 0.9297 0.7550 0.0000
vt 0.9297 0.8199 0.0000
vt 0.9297 0.8177 0.0000
vt 0.9320 0.8187 0.0000
vt 0.9297 0.8826 0.0000
vt 0.9947 0.8187 0.0000
vt 0.9297 0.6251 0.0000
# 135 texture coords

o polySurface2
g polySurface2
usemtl Material__25
s off
f 1/1/1 2/2/2 3/3/3 
f 3/3/3 4/4/4 1/1/1 
f 4/4/4 3/3/3 5/5/5 
f 5/5/5 6/6/6 4/4/4 
f 7/7/7 8/8/8 9/9/9 
f 9/9/9 10/10/10 7/7/7 
f 10/11/10 9/12/9 11/13/11 
f 11/13/11 12/14/12 10/11/10 
f 13/15/13 14/16/14 15/17/15 
f 15/17/15 16/18/16 13/15/13 
f 16/18/16 15/17/15 8/8/8 
f 8/8/8 17/19/17 16/18/16 
f 18/20/18 19/21/19 20/22/20 
f 20/22/20 21/23/21 18/20/18 
f 21/23/21 20/22/20 22/24/22 
f 22/24/22 23/25/23 21/23/21 
f 24/26/24 25/27/25 26/28/26 
f 26/28/26 27/29/27 24/26/24 
f 27/29/27 26/28/26 28/30/28 
f 28/30/28 29/31/29 27/29/27 
f 30/32/30 31/33/31 32/34/32 
f 32/34/32 33/35/33 30/32/30 
f 33/36/33 32/37/32 34/38/34 
f 34/38/34 35/39/35 33/36/33 
f 36/40/36 37/41/37 38/42/38 
f 38/42/38 39/43/39 36/40/36 
f 39/44/39 38/45/38 31/33/31 
f 31/33/31 40/46/40 39/44/39 
f 41/47/41 34/38/34 42/48/42 
f 42/48/42 43/49/43 41/47/41 
f 43/50/43 42/51/42 37/41/37 
f 37/41/37 44/52/44 43/50/43 
f 45/53/45 1/1/1 46/54/46 
f 46/54/46 47/55/47 45/53/45 
f 47/56/47 46/57/46 48/58/48 
f 48/58/48 49/59/49 47/56/47 
f 29/31/29 50/60/50 51/61/51 
f 51/61/51 52/62/52 29/31/29 
f 52/62/52 51/61/51 53/63/53 
f 53/63/53 54/64/54 52/62/52 
f 55/65/55 56/66/56 57/67/57 
f 57/67/57 58/68/58 55/65/55 
f 58/69/58 57/70/57 59/71/59 
f 59/71/59 60/72/60 58/69/58 
f 61/73/61 62/74/62 63/75/63 
f 63/75/63 64/76/64 61/73/61 
f 64/77/64 63/78/63 60/72/60 
f 60/72/60 65/79/65 64/77/64 
f 66/80/66 17/19/17 67/81/67 
f 67/81/67 45/53/45 66/80/66 
f 29/31/29 28/30/28 68/82/68 
f 68/82/68 50/60/50 29/31/29 
f 24/26/24 56/66/56 69/83/69 
f 69/83/69 25/27/25 24/26/24 
f 61/73/61 70/84/70 36/40/36 
f 36/40/36 62/74/62 61/73/61 
f 54/64/54 53/63/53 71/85/71 
f 71/85/71 59/71/59 54/64/54 
f 22/24/22 35/39/35 72/86/72 
f 72/86/72 23/25/23 22/24/22 
f 50/60/50 68/82/68 13/15/13 
f 13/15/13 73/87/73 50/60/50 
f 74/88/74 49/59/49 71/85/71 
f 71/85/71 53/63/53 74/88/74 
f 6/6/6 5/5/5 70/84/70 
f 70/84/70 61/73/61 6/6/6 
f 11/13/11 23/25/23 72/86/72 
f 72/86/72 12/14/12 11/13/11 
f 75/89/75 44/52/44 70/84/70 
f 70/84/70 5/5/5 75/89/75 
f 44/52/44 37/41/37 36/40/36 
f 36/40/36 70/84/70 44/52/44 
f 30/32/30 76/90/76 25/27/25 
f 25/27/25 69/83/69 30/32/30 
f 19/21/19 18/20/18 68/82/68 
f 68/82/68 28/30/28 19/21/19 
f 18/20/18 14/16/14 13/15/13 
f 13/15/13 68/82/68 18/20/18 
f 8/8/8 7/7/7 67/81/67 
f 67/81/67 17/19/17 8/8/8 
f 7/7/7 77/91/77 2/2/2 
f 2/2/2 67/81/67 7/7/7 
f 1/1/1 45/53/45 67/81/67 
f 67/81/67 2/2/2 1/1/1 
f 49/59/49 48/58/48 65/79/65 
f 65/79/65 71/85/71 49/59/49 
f 60/72/60 59/71/59 71/85/71 
f 71/85/71 65/79/65 60/72/60 
f 55/65/55 40/46/40 69/83/69 
f 69/83/69 56/66/56 55/65/55 
f 31/33/31 30/32/30 69/83/69 
f 69/83/69 40/46/40 31/33/31 
f 35/39/35 34/38/34 41/47/41 
f 41/47/41 72/86/72 35/39/35 
f 78/92/78 12/14/12 72/86/72 
f 72/86/72 41/47/41 78/92/78 
f 2/2/2 77/91/77 79/93/79 
f 79/93/79 3/3/3 2/2/2 
f 3/3/3 79/93/79 75/89/75 
f 75/89/75 5/5/5 3/3/3 
f 73/87/73 13/15/13 16/18/16 
f 16/18/16 80/94/80 73/87/73 
f 80/94/80 16/18/16 17/19/17 
f 17/19/17 66/80/66 80/94/80 
f 25/27/25 76/90/76 81/95/81 
f 81/95/81 26/28/26 25/27/25 
f 26/28/26 81/95/81 19/21/19 
f 19/21/19 28/30/28 26/28/26 
f 62/74/62 36/40/36 39/43/39 
f 39/43/39 82/96/82 62/74/62 
f 82/97/82 39/44/39 40/46/40 
f 40/46/40 55/65/55 82/97/82 
f 12/14/12 78/92/78 83/98/83 
f 83/98/83 10/11/10 12/14/12 
f 10/10/10 83/99/83 77/91/77 
f 77/91/77 7/7/7 10/10/10 
f 66/80/66 45/53/45 47/55/47 
f 47/55/47 84/100/84 66/80/66 
f 84/101/84 47/56/47 49/59/49 
f 49/59/49 74/88/74 84/101/84 
f 23/25/23 11/13/11 85/102/85 
f 85/102/85 21/23/21 23/25/23 
f 21/23/21 85/102/85 14/16/14 
f 14/16/14 18/20/18 21/23/21 
f 50/60/50 73/87/73 86/103/86 
f 86/103/86 51/61/51 50/60/50 
f 51/61/51 86/103/86 74/88/74 
f 74/88/74 53/63/53 51/61/51 
f 35/39/35 22/24/22 87/104/87 
f 87/104/87 33/36/33 35/39/35 
f 33/35/33 87/105/87 76/90/76 
f 76/90/76 30/32/30 33/35/33 
f 56/66/56 24/26/24 88/106/88 
f 88/106/88 57/67/57 56/66/56 
f 57/70/57 88/107/88 54/64/54 
f 54/64/54 59/71/59 57/70/57 
f 44/52/44 75/89/75 89/108/89 
f 89/108/89 43/50/43 44/52/44 
f 43/49/43 89/109/89 78/92/78 
f 78/92/78 41/47/41 43/49/43 
f 65/79/65 48/58/48 90/110/90 
f 90/110/90 64/77/64 65/79/65 
f 64/76/64 90/111/90 6/6/6 
f 6/6/6 61/73/61 64/76/64 
f 91/112/91 83/98/83 78/92/78 
f 78/92/78 89/109/89 91/112/91 
f 91/113/91 89/108/89 75/89/75 
f 75/89/75 79/93/79 91/113/91 
f 91/114/91 79/93/79 77/91/77 
f 77/91/77 83/99/83 91/114/91 
f 92/115/92 85/102/85 11/13/11 
f 11/13/11 9/12/9 92/115/92 
f 92/116/92 9/9/9 8/8/8 
f 8/8/8 15/17/15 92/116/92 
f 92/117/92 15/17/15 14/16/14 
f 14/16/14 85/102/85 92/117/92 
f 93/118/93 87/104/87 22/24/22 
f 22/24/22 20/22/20 93/118/93 
f 93/119/93 20/22/20 19/21/19 
f 19/21/19 81/95/81 93/119/93 
f 93/120/93 81/95/81 76/90/76 
f 76/90/76 87/105/87 93/120/93 
f 94/121/94 42/48/42 34/38/34 
f 34/38/34 32/37/32 94/121/94 
f 94/122/94 32/34/32 31/33/31 
f 31/33/31 38/45/38 94/122/94 
f 94/123/94 38/42/38 37/41/37 
f 37/41/37 42/51/42 94/123/94 
f 95/124/95 46/54/46 1/1/1 
f 1/1/1 4/4/4 95/124/95 
f 95/125/95 4/4/4 6/6/6 
f 6/6/6 90/111/90 95/125/95 
f 95/126/95 90/110/90 48/58/48 
f 48/58/48 46/57/46 95/126/95 
f 96/127/96 80/94/80 66/80/66 
f 66/80/66 84/100/84 96/127/96 
f 96/128/96 84/101/84 74/88/74 
f 74/88/74 86/103/86 96/128/96 
f 96/129/96 86/103/86 73/87/73 
f 73/87/73 80/94/80 96/129/96 
f 97/130/97 88/106/88 24/26/24 
f 24/26/24 27/29/27 97/130/97 
f 97/131/97 27/29/27 29/31/29 
f 29/31/29 52/62/52 97/131/97 
f 97/132/97 52/62/52 54/64/54 
f 54/64/54 88/107/88 97/132/97 
f 98/133/98 82/97/82 55/65/55 
f 55/65/55 58/68/58 98/133/98 
f 98/134/98 58/69/58 60/72/60 
f 60/72/60 63/78/63 98/134/98 
f 98/135/98 63/75/63 62/74/62 
f 62/74/62 82/96/82 98/135/98 
# 192 faces

