# 3ds Max Wavefront OBJ Exporter v0.99 - (c)2007 guruware
# File Created: 30.04.2025 01:53:28

mtllib mario_p_der_1.mtl

#
# object piernas_der001
#

v  -0.1456 0.0320 0.2982
v  -0.0261 -0.0499 0.3114
v  0.0316 -0.0334 0.3317
v  0.1034 -0.1155 0.2612
v  0.1448 -0.0979 0.2533
v  0.1796 -0.1507 0.1880
v  0.2302 -0.1630 0.0853
v  0.2143 -0.1346 0.1361
v  0.2427 -0.1473 -0.0393
v  0.2244 -0.1418 0.0583
v  -0.2908 -0.4661 -0.1717
v  -0.2412 -0.4119 -0.2669
v  -0.2405 -0.4522 -0.2691
v  -0.2867 -0.4118 -0.1692
v  -0.1486 -0.4465 -0.3289
v  -0.2874 -0.3558 -0.1666
v  -0.2362 -0.3703 -0.2653
v  -0.2985 -0.0034 -0.1470
v  -0.1467 -0.3742 -0.3273
v  -0.2423 -0.0479 -0.2584
v  -0.3062 0.0980 -0.1370
v  -0.1479 -0.4105 -0.3267
v  -0.0200 -0.4458 -0.3483
v  -0.0199 -0.4104 -0.3443
v  0.1047 -0.4463 -0.3286
v  -0.2570 0.0575 -0.2500
v  -0.3072 0.1484 -0.1316
v  -0.2653 0.1168 -0.2363
v  -0.1532 -0.0087 -0.3301
v  -0.1519 0.0416 -0.3330
v  -0.1481 -0.0863 -0.3278
v  -0.0298 -0.0627 -0.3546
v  -0.0384 -0.0078 -0.3611
v  -0.0208 -0.1320 -0.3522
v  -0.0194 -0.3750 -0.3466
v  0.1012 -0.1025 -0.3359
v  0.1014 -0.0655 -0.3367
v  0.1795 -0.0943 -0.2722
v  0.1817 -0.1173 -0.2703
v  0.1022 -0.4105 -0.3265
v  0.1850 -0.4502 -0.2681
v  0.1810 -0.4100 -0.2660
v  0.2237 -0.4654 -0.1707
v  0.2283 -0.1459 -0.1653
v  0.1832 -0.1592 -0.2698
v  0.1017 -0.3745 -0.3272
v  0.2419 -0.1786 -0.0374
v  0.2290 -0.1703 -0.1609
v  0.0984 -0.1513 -0.3344
v  0.1802 -0.3707 -0.2643
v  0.2333 -0.3319 -0.0441
v  0.2215 -0.3558 -0.1652
v  0.2224 -0.4072 -0.1681
v  0.2342 -0.4058 -0.0466
v  0.2289 -0.1778 0.0831
v  0.1836 -0.1715 0.1848
v  0.2371 -0.4773 -0.0533
v  0.2216 -0.3180 0.0748
v  0.1027 -0.1341 0.2569
v  0.2239 -0.4958 0.0631
v  -0.0223 -0.0869 0.2896
v  0.1010 -0.1580 0.2537
v  0.2224 -0.4058 0.0677
v  -0.2583 0.0593 0.2155
v  -0.1535 -0.0175 0.2778
v  -0.2527 0.1141 0.2356
v  -0.2988 -0.4813 -0.0536
v  -0.1487 -0.0770 0.2608
v  -0.0216 -0.1299 0.2741
v  -0.3073 0.1535 0.1345
v  -0.2984 -0.4062 -0.0473
v  -0.2860 -0.4980 0.0640
v  -0.3016 -0.3322 -0.0451
v  -0.3064 0.1010 0.1180
v  -0.3226 0.1073 -0.0154
v  -0.3292 0.1618 -0.0171
v  -0.2433 -0.0306 0.2056
v  -0.3139 0.0137 -0.0195
v  -0.2989 0.0072 0.1064
v  -0.2876 -0.3183 0.0758
v  -0.2845 -0.4062 0.0684
v  -0.2391 -0.3759 0.1794
v  -0.2390 -0.3147 0.1831
v  -0.2393 -0.4394 0.1740
v  -0.1481 -0.3124 0.2462
v  -0.1474 -0.3752 0.2440
v  0.1825 -0.4390 0.1729
v  -0.1470 -0.4409 0.2387
v  -0.0193 -0.3115 0.2663
v  -0.0197 -0.3750 0.2644
v  0.1000 -0.4407 0.2375
v  0.1809 -0.3756 0.1773
v  0.0999 -0.3751 0.2425
v  -0.0199 -0.4414 0.2593
v  0.1008 -0.3123 0.2443
v  0.1804 -0.3144 0.1804
# 96 vertices

vn -0.2629 -0.2316 0.9366
vn -0.2081 -0.3801 0.9012
vn -0.0689 -0.5674 0.8205
vn 0.3073 -0.5166 0.7992
vn 0.4394 -0.5072 0.7414
vn 0.8032 -0.2049 0.5594
vn 0.9448 0.2884 0.1556
vn 0.8759 -0.2190 0.4300
vn 0.8929 0.4267 0.1441
vn 0.9026 0.4106 0.1294
vn -0.9001 0.0689 -0.4301
vn -0.7570 0.0719 -0.6495
vn -0.7467 0.0243 -0.6647
vn -0.8970 0.0610 -0.4377
vn -0.3511 0.0649 -0.9341
vn -0.8871 0.0033 -0.4615
vn -0.7507 0.0520 -0.6586
vn -0.8953 -0.0182 -0.4452
vn -0.3615 0.0041 -0.9324
vn -0.7701 -0.0269 -0.6373
vn -0.9203 -0.0162 -0.3908
vn -0.3517 0.0278 -0.9357
vn 0.0028 0.1111 -0.9938
vn 0.0032 0.0188 -0.9998
vn 0.3956 0.0856 -0.9144
vn -0.7919 -0.0138 -0.6104
vn -0.9258 0.0230 -0.3773
vn -0.8563 0.0098 -0.5164
vn -0.4321 -0.0455 -0.9007
vn -0.4861 -0.0347 -0.8732
vn -0.4073 -0.0321 -0.9127
vn -0.0555 -0.0770 -0.9955
vn -0.1673 -0.1379 -0.9762
vn -0.0206 -0.0285 -0.9994
vn 0.0020 -0.0361 -0.9993
vn 0.3962 -0.0362 -0.9174
vn 0.3597 -0.0211 -0.9328
vn 0.7545 0.0222 -0.6560
vn 0.8030 0.0276 -0.5953
vn 0.3892 0.0335 -0.9205
vn 0.8087 0.1087 -0.5781
vn 0.7932 0.0669 -0.6053
vn 0.9697 0.0411 -0.2408
vn 0.9553 -0.0131 -0.2954
vn 0.7923 -0.0103 -0.6101
vn 0.4013 -0.0129 -0.9158
vn 0.9986 -0.0446 0.0290
vn 0.9709 -0.0245 -0.2382
vn 0.3797 -0.0381 -0.9243
vn 0.7985 0.0100 -0.6020
vn 0.9998 -0.0200 0.0014
vn 0.9705 -0.0019 -0.2413
vn 0.9950 -0.0225 0.0976
vn 0.9563 -0.1049 0.2729
vn 0.9679 0.0337 -0.2491
vn 0.9997 0.0231 0.0054
vn 0.9616 -0.0937 0.2579
vn 0.7659 0.0358 0.6419
vn 0.8067 -0.0023 0.5909
vn 0.9993 0.0360 0.0106
vn 0.9701 -0.0316 0.2408
vn 0.3923 -0.2235 0.8923
vn 0.4335 -0.1876 0.8814
vn 0.9770 0.0090 0.2130
vn -0.2842 -0.5021 0.8168
vn -0.1219 -0.4150 0.9016
vn 0.4096 -0.1075 0.9059
vn 0.9732 -0.0017 0.2301
vn -0.4907 -0.2789 0.8255
vn -0.7933 -0.1824 0.5809
vn -0.4582 -0.2836 0.8424
vn -0.7834 -0.1429 0.6049
vn -0.9953 0.0770 -0.0579
vn -0.9998 0.0130 0.0141
vn -0.9959 0.0202 -0.0883
vn -0.3852 -0.1722 0.9066
vn -0.0349 -0.1885 0.9815
vn -0.9557 -0.0970 0.2779
vn -0.9998 -0.0178 0.0126
vn -0.9724 0.0021 0.2335
vn -0.9993 -0.0364 0.0047
vn -0.9935 -0.0145 -0.1128
vn -0.9615 -0.1071 0.2532
vn -0.9948 -0.1014 0.0045
vn -0.9944 -0.1054 -0.0017
vn -0.9920 -0.0466 -0.1173
vn -0.7437 -0.1299 0.6558
vn -0.9879 -0.0508 -0.1468
vn -0.9819 0.0020 -0.1894
vn -0.9978 -0.0661 0.0024
vn -0.9531 -0.0889 0.2892
vn -0.9620 -0.0500 0.2685
vn -0.9660 -0.0258 0.2574
vn -0.7728 -0.0477 0.6329
vn -0.7649 -0.0460 0.6425
vn -0.8058 -0.0424 0.5907
vn -0.3708 -0.0461 0.9276
vn -0.3734 -0.0558 0.9260
vn 0.8307 -0.0178 0.5564
vn -0.3774 -0.0758 0.9229
vn 0.0107 -0.0402 0.9991
vn 0.0106 -0.0538 0.9985
vn 0.4163 -0.0647 0.9069
vn 0.8050 -0.0258 0.5927
vn 0.4132 -0.0507 0.9092
vn 0.0094 -0.0764 0.9970
vn 0.4184 -0.0430 0.9072
vn 0.8038 -0.0305 0.5941
# 108 vertex normals

vt 0.4131 0.2910 0.0000
vt 0.4415 0.2724 0.0000
vt 0.4547 0.2769 0.0000
vt 0.4683 0.2529 0.0000
vt 0.4778 0.2539 0.0000
vt 0.4818 0.2359 0.0000
vt 0.4912 0.2179 0.0000
vt 0.4920 0.2287 0.0000
vt 0.4983 0.1995 0.0000
vt 0.4956 0.2150 0.0000
vt 0.5141 0.1079 0.0000
vt 0.5318 0.1188 0.0000
vt 0.5322 0.1106 0.0000
vt 0.5136 0.1163 0.0000
vt 0.5495 0.1133 0.0000
vt 0.5136 0.1286 0.0000
vt 0.5321 0.1285 0.0000
vt 0.5118 0.1701 0.0000
vt 0.5497 0.1284 0.0000
vt 0.5286 0.1747 0.0000
vt 0.5100 0.1890 0.0000
vt 0.5495 0.1208 0.0000
vt 0.5703 0.1146 0.0000
vt 0.5704 0.1220 0.0000
vt 0.5906 0.1149 0.0000
vt 0.5276 0.1928 0.0000
vt 0.5086 0.1975 0.0000
vt 0.5269 0.2035 0.0000
vt 0.5476 0.1954 0.0000
vt 0.5479 0.2066 0.0000
vt 0.5483 0.1803 0.0000
vt 0.5694 0.1943 0.0000
vt 0.5695 0.2047 0.0000
vt 0.5697 0.1809 0.0000
vt 0.5706 0.1293 0.0000
vt 0.5911 0.1899 0.0000
vt 0.5912 0.1972 0.0000
vt 0.6066 0.1904 0.0000
vt 0.6068 0.1853 0.0000
vt 0.5905 0.1223 0.0000
vt 0.6066 0.1139 0.0000
vt 0.6066 0.1222 0.0000
vt 0.6231 0.1102 0.0000
vt 0.6249 0.1792 0.0000
vt 0.6066 0.1761 0.0000
vt 0.5905 0.1299 0.0000
vt 0.6445 0.1686 0.0000
vt 0.6251 0.1734 0.0000
vt 0.5906 0.1785 0.0000
vt 0.6070 0.1306 0.0000
vt 0.6434 0.1364 0.0000
vt 0.6243 0.1330 0.0000
vt 0.6447 0.1750 0.0000
vt 0.6626 0.1702 0.0000
vt 0.6236 0.1222 0.0000
vt 0.6427 0.1209 0.0000
vt 0.6623 0.1671 0.0000
vt 0.6794 0.1709 0.0000
vt 0.6787 0.1666 0.0000
vt 0.6414 0.1062 0.0000
vt 0.6616 0.1374 0.0000
vt 0.6948 0.1754 0.0000
vt 0.6946 0.1717 0.0000
vt 0.6593 0.0999 0.0000
vt 0.7122 0.1854 0.0000
vt 0.7120 0.1779 0.0000
vt 0.6945 0.1668 0.0000
vt 0.6603 0.1188 0.0000
vt 0.7269 0.1966 0.0000
vt 0.7454 0.1991 0.0000
vt 0.7294 0.1881 0.0000
vt 0.7425 0.2076 0.0000
vt 0.8033 0.0962 0.0000
vt 0.7855 0.0963 0.0000
vt 0.8034 0.1100 0.0000
vt 0.7300 0.1773 0.0000
vt 0.7121 0.1693 0.0000
vt 0.7612 0.2148 0.0000
vt 0.7846 0.1123 0.0000
vt 0.7677 0.0929 0.0000
vt 0.7842 0.1282 0.0000
vt 0.8034 0.1254 0.0000
vt 0.7636 0.2069 0.0000
vt 0.7822 0.2090 0.0000
vt 0.7816 0.2173 0.0000
vt 0.8000 0.1956 0.0000
vt 0.7472 0.1850 0.0000
vt 0.7992 0.2095 0.0000
vt 0.7984 0.2174 0.0000
vt 0.7826 0.1945 0.0000
vt 0.7653 0.1919 0.0000
vt 0.7658 0.1301 0.0000
vt 0.7669 0.1120 0.0000
vt 0.7487 0.1181 0.0000
vt 0.7481 0.1307 0.0000
vt 0.7494 0.1047 0.0000
vt 0.7316 0.1315 0.0000
vt 0.7318 0.1184 0.0000
vt 0.6775 0.1094 0.0000
vt 0.7322 0.1042 0.0000
vt 0.7122 0.1328 0.0000
vt 0.7123 0.1194 0.0000
vt 0.6936 0.1070 0.0000
vt 0.6782 0.1231 0.0000
vt 0.6940 0.1213 0.0000
vt 0.7124 0.1048 0.0000
vt 0.6940 0.1348 0.0000
vt 0.6787 0.1362 0.0000
# 108 texture coords

o piernas_der001
g piernas_der001
usemtl Mario_MarioBodyMat00
s 1
f 1/1/1 2/2/2 3/3/3 
f 2/2/2 4/4/4 3/3/3 
f 3/3/3 4/4/4 5/5/5 
f 4/4/4 6/6/6 5/5/5 
f 6/6/6 7/7/7 8/8/8 
f 6/6/6 8/8/8 5/5/5 
f 7/7/7 9/9/9 10/10/10 
f 7/7/7 10/10/10 8/8/8 
f 11/11/11 12/12/12 13/13/13 
f 11/11/11 14/14/14 12/12/12 
f 13/13/13 12/12/12 15/15/15 
f 14/14/14 16/16/16 17/17/17 
f 14/14/14 17/17/17 12/12/12 
f 16/16/16 18/18/18 17/17/17 
f 17/17/17 19/19/19 12/12/12 
f 17/17/17 18/18/18 20/20/20 
f 17/17/17 20/20/20 19/19/19 
f 18/18/18 21/21/21 20/20/20 
f 12/12/12 19/19/19 22/22/22 
f 12/12/12 22/22/22 15/15/15 
f 23/23/23 24/24/24 25/25/25 
f 23/23/23 15/15/15 24/24/24 
f 15/15/15 22/22/22 24/24/24 
f 21/21/21 26/26/26 20/20/20 
f 21/21/21 27/27/27 28/28/28 
f 21/21/21 28/28/28 26/26/26 
f 26/26/26 29/29/29 20/20/20 
f 26/26/26 30/30/30 29/29/29 
f 26/26/26 28/28/28 30/30/30 
f 20/20/20 31/31/31 19/19/19 
f 20/20/20 29/29/29 31/31/31 
f 29/29/29 30/30/30 32/32/32 
f 29/29/29 32/32/32 31/31/31 
f 30/30/30 33/33/33 32/32/32 
f 31/31/31 34/34/34 35/35/35 
f 31/31/31 35/35/35 19/19/19 
f 31/31/31 32/32/32 34/34/34 
f 19/19/19 35/35/35 22/22/22 
f 33/33/33 36/36/36 32/32/32 
f 33/33/33 37/37/37 36/36/36 
f 22/22/22 35/35/35 24/24/24 
f 37/37/37 38/38/38 39/39/39 
f 37/37/37 39/39/39 36/36/36 
f 24/24/24 35/35/35 40/40/40 
f 24/24/24 40/40/40 25/25/25 
f 25/25/25 40/40/40 41/41/41 
f 41/41/41 42/42/42 43/43/43 
f 41/41/41 40/40/40 42/42/42 
f 38/38/38 44/44/44 39/39/39 
f 39/39/39 45/45/45 36/36/36 
f 39/39/39 44/44/44 45/45/45 
f 35/35/35 46/46/46 40/40/40 
f 35/35/35 34/34/34 46/46/46 
f 40/40/40 46/46/46 42/42/42 
f 44/44/44 47/47/47 48/48/48 
f 44/44/44 48/48/48 45/45/45 
f 36/36/36 49/49/49 32/32/32 
f 36/36/36 45/45/45 49/49/49 
f 34/34/34 49/49/49 46/46/46 
f 34/34/34 32/32/32 49/49/49 
f 46/46/46 50/50/50 42/42/42 
f 46/46/46 49/49/49 50/50/50 
f 48/48/48 47/47/47 51/51/51 
f 48/48/48 51/51/51 52/52/52 
f 48/48/48 50/50/50 45/45/45 
f 48/48/48 52/52/52 50/50/50 
f 9/53/53 7/54/54 47/47/47 
f 49/49/49 45/45/45 50/50/50 
f 50/50/50 52/52/52 53/55/55 
f 50/50/50 53/55/55 42/42/42 
f 42/42/42 53/55/55 43/43/43 
f 52/52/52 51/51/51 54/56/56 
f 52/52/52 54/56/56 53/55/55 
f 7/54/54 55/57/57 47/47/47 
f 7/54/54 6/58/58 56/59/59 
f 7/54/54 56/59/59 55/57/57 
f 53/55/55 57/60/60 43/43/43 
f 53/55/55 54/56/56 57/60/60 
f 55/57/57 51/51/51 47/47/47 
f 55/57/57 58/61/61 51/51/51 
f 55/57/57 56/59/59 58/61/61 
f 6/58/58 4/62/62 59/63/63 
f 6/58/58 59/63/63 56/59/59 
f 57/60/60 54/56/56 60/64/64 
f 51/51/51 58/61/61 54/56/56 
f 4/62/62 2/65/65 59/63/63 
f 59/63/63 61/66/66 62/67/67 
f 59/63/63 62/67/67 56/59/59 
f 59/63/63 2/65/65 61/66/66 
f 54/56/56 58/61/61 63/68/68 
f 54/56/56 63/68/68 60/64/64 
f 2/65/65 1/69/69 61/66/66 
f 1/69/69 64/70/70 65/71/71 
f 1/69/69 66/72/72 64/70/70 
f 1/69/69 65/71/71 61/66/66 
f 11/73/73 67/74/74 14/75/75 
f 65/71/71 68/76/76 69/77/77 
f 65/71/71 69/77/77 61/66/66 
f 65/71/71 64/70/70 68/76/76 
f 66/72/72 70/78/78 64/70/70 
f 61/66/66 69/77/77 62/67/67 
f 67/74/74 71/79/79 14/75/75 
f 67/74/74 72/80/80 71/79/79 
f 14/75/75 71/79/79 73/81/81 
f 14/75/75 73/81/81 16/82/82 
f 70/78/78 74/83/83 64/70/70 
f 70/78/78 75/84/84 74/83/83 
f 70/78/78 76/85/85 75/84/84 
f 16/82/82 73/81/81 18/86/86 
f 64/70/70 74/83/83 77/87/87 
f 64/70/70 77/87/87 68/76/76 
f 76/85/85 21/88/88 75/84/84 
f 76/85/85 27/89/89 21/88/88 
f 21/88/88 18/86/86 75/84/84 
f 18/86/86 78/90/90 75/84/84 
f 18/86/86 73/81/81 78/90/90 
f 75/84/84 78/90/90 79/91/91 
f 75/84/84 79/91/91 74/83/83 
f 78/90/90 73/81/81 79/91/91 
f 73/81/81 71/79/79 80/92/92 
f 73/81/81 80/92/92 79/91/91 
f 79/91/91 77/87/87 74/83/83 
f 79/91/91 80/92/92 77/87/87 
f 71/79/79 81/93/93 80/92/92 
f 71/79/79 72/80/80 81/93/93 
f 80/92/92 81/93/93 82/94/94 
f 80/92/92 83/95/95 77/87/87 
f 80/92/92 82/94/94 83/95/95 
f 77/87/87 83/95/95 68/76/76 
f 81/93/93 72/80/80 84/96/96 
f 81/93/93 84/96/96 82/94/94 
f 82/94/94 85/97/97 83/95/95 
f 82/94/94 86/98/98 85/97/97 
f 82/94/94 84/96/96 86/98/98 
f 83/95/95 85/97/97 68/76/76 
f 68/76/76 85/97/97 69/77/77 
f 60/64/64 63/68/68 87/99/99 
f 84/96/96 88/100/100 86/98/98 
f 85/97/97 86/98/98 89/101/101 
f 85/97/97 89/101/101 69/77/77 
f 86/98/98 90/102/102 89/101/101 
f 86/98/98 88/100/100 90/102/102 
f 69/77/77 89/101/101 62/67/67 
f 91/103/103 92/104/104 93/105/105 
f 91/103/103 87/99/99 92/104/104 
f 91/103/103 93/105/105 94/106/106 
f 87/99/99 63/68/68 92/104/104 
f 94/106/106 90/102/102 88/100/100 
f 94/106/106 93/105/105 90/102/102 
f 63/68/68 58/61/61 92/104/104 
f 89/101/101 93/105/105 95/107/107 
f 89/101/101 90/102/102 93/105/105 
f 89/101/101 95/107/107 62/67/67 
f 62/67/67 95/107/107 56/59/59 
f 92/104/104 58/61/61 96/108/108 
f 92/104/104 96/108/108 95/107/107 
f 92/104/104 95/107/107 93/105/105 
f 58/61/61 56/59/59 96/108/108 
f 95/107/107 96/108/108 56/59/59 
# 159 faces

