# 3ds Max Wavefront OBJ Exporter v0.99 - (c)2007 guruware
# File Created: 07.05.2025 03:35:00

mtllib phineas_brazoD.mtl

#
# object Phineas_Brazo_Der
#

v  -0.3843 -0.1167 -0.0311
v  -0.4497 -0.1368 -0.0507
v  -0.3919 -0.1045 -0.0092
v  -0.4778 -0.1949 0.0266
v  -0.4963 -0.2039 0.0179
v  -0.4782 -0.1975 0.0099
v  -0.4924 -0.2009 -0.0072
v  -0.4837 -0.2031 -0.0557
v  -0.4840 -0.2147 -0.0167
v  -0.4987 -0.1891 0.0257
v  -0.4991 -0.1908 0.0098
v  -0.4309 -0.1907 0.0418
v  -0.4402 -0.1969 0.0553
v  -0.4415 -0.1814 0.0506
v  -0.4239 -0.1975 0.0584
v  -0.4333 -0.1887 0.0678
v  -0.4433 -0.1628 0.0270
v  -0.4493 -0.1640 0.0016
v  -0.4122 -0.1653 0.0280
v  -0.4717 -0.2138 -0.0495
v  -0.4621 -0.1990 -0.0569
v  -0.4707 -0.1997 -0.0064
v  -0.3746 -0.1424 -0.0127
v  -0.3765 -0.1356 0.0168
v  -0.4483 -0.1392 0.0262
v  -0.4515 -0.1358 0.0011
v  -0.4779 -0.1583 0.0092
v  -0.4752 -0.1566 0.0269
v  -0.4601 -0.1730 -0.0551
v  -0.4639 -0.1774 0.0089
v  -0.4815 -0.1637 -0.0534
v  -0.4812 -0.1631 -0.0054
v  -0.4610 -0.1753 0.0272
v  -0.4446 -0.1593 -0.0536
v  -0.3794 -0.1323 -0.0376
v  -0.2055 -0.0703 -0.0315
v  -0.2137 -0.0481 -0.0240
v  -0.3812 -0.1196 0.0118
v  -0.2122 -0.0542 0.0132
v  -0.2170 -0.0414 -0.0050
v  -0.4617 -0.1761 -0.0049
v  -0.4084 -0.1614 0.0571
v  -0.4262 -0.1637 0.0432
v  -0.4002 -0.1718 0.0473
v  -0.4212 -0.1401 0.0304
v  -0.4154 -0.1755 0.0325
v  -0.1126 -0.0206 0.0148
v  -0.1175 -0.0079 -0.0034
v  -0.2044 -0.0761 0.0118
v  -0.2022 -0.0825 -0.0129
v  -0.1141 -0.0146 -0.0224
v  -0.1059 -0.0367 -0.0299
v  -0.1026 -0.0490 -0.0113
v  -0.0790 -0.0429 -0.0580
v  -0.0120 -0.0570 -0.0167
v  -0.0704 -0.0730 -0.0173
v  -0.1736 -0.0788 -0.0597
v  -0.0975 0.0077 -0.0378
v  -0.1940 -0.0230 -0.0392
v  -0.1074 0.0343 0.0008
v  -0.2050 0.0066 -0.0005
v  -0.1704 -0.0936 0.0350
v  -0.1641 -0.1118 -0.0192
v  -0.0762 -0.0567 0.0368
v  -0.1917 -0.0334 0.0387
v  -0.0954 -0.0022 0.0402
v  0.0033 0.0409 0.0427
v  0.0159 0.0838 0.0092
v  -0.1048 -0.0426 0.0133
v  0.0016 -0.0217 -0.0575
v  0.0151 0.0464 -0.0287
v  -0.0069 -0.0376 0.0381
# 72 vertices

vn -0.0981 0.6541 -0.7500
vn -0.3099 0.6740 -0.6706
vn -0.3255 0.9398 0.1036
vn 0.3803 -0.5978 0.7057
vn -0.4588 -0.8876 0.0403
vn 0.4117 -0.6845 -0.6017
vn -0.7569 -0.2253 0.6135
vn -0.6235 -0.3267 -0.7103
vn -0.2314 -0.9288 0.2896
vn -0.7595 -0.0308 0.6497
vn -0.7568 -0.0624 -0.6506
vn -0.4589 -0.8876 0.0403
vn -0.7595 -0.0309 0.6497
vn -0.2236 -0.5465 -0.8071
vn -0.7098 -0.7036 0.0334
vn -0.9372 0.3237 -0.1298
vn 0.4273 -0.8580 0.2851
vn -0.2764 -0.0456 0.9600
vn -0.7098 -0.7036 0.0333
vn -0.2235 -0.5465 -0.8071
vn 0.0901 -0.6041 0.7918
vn 0.2156 -0.9748 -0.0580
vn 0.0587 -0.8966 -0.4390
vn 0.2469 -0.9055 -0.3452
vn 0.2470 -0.9054 -0.3453
vn 0.7018 -0.2840 -0.6533
vn 0.5371 -0.4375 0.7212
vn 0.5371 -0.4374 0.7212
vn 0.2470 -0.9054 -0.3452
vn 0.3881 -0.9130 -0.1258
vn 0.6156 -0.3420 0.7100
vn 0.3881 -0.9130 -0.1257
vn -0.3255 0.6422 0.6940
vn -0.5608 0.8212 0.1058
vn -0.6470 0.4888 -0.5852
vn -0.4980 0.5367 0.6811
vn 0.7018 -0.2841 -0.6533
vn 0.5293 -0.2559 -0.8089
vn -0.6471 0.4888 -0.5851
vn -0.7569 -0.0625 -0.6506
vn 0.4273 -0.5741 -0.6985
vn -0.6706 0.4067 -0.6205
vn -0.7568 -0.2253 0.6136
vn -0.7098 0.3530 0.6096
vn -0.6706 0.4066 -0.6205
vn -0.6235 -0.3267 -0.7102
vn -0.7569 -0.2254 0.6135
vn 0.2156 -0.9748 -0.0581
vn 0.0901 -0.6042 0.7918
vn 0.4586 -0.5132 0.7255
vn 0.3646 -0.4581 -0.8107
vn 0.2783 -0.3376 -0.8992
vn 0.3646 -0.4580 -0.8107
vn 0.1137 -0.3071 -0.9449
vn 0.1136 -0.3071 -0.9449
vn -0.2236 0.6587 -0.7184
vn -0.0981 0.6190 0.7793
vn -0.1608 0.3836 0.9094
vn -0.3412 0.9303 0.1346
vn -0.3412 0.9303 0.1345
vn -0.0981 0.6190 0.7792
vn 0.5292 -0.2558 -0.8090
vn 0.5292 -0.2559 -0.8090
vn 0.4665 -0.5174 0.7174
vn -0.7568 -0.2253 0.6135
vn -0.7098 0.3529 0.6096
vn -0.7568 -0.0625 -0.6506
vn 0.4273 -0.5740 -0.6985
vn -0.2763 -0.0456 0.9600
vn 0.1999 0.3489 0.9156
vn -0.8980 0.4345 -0.0696
vn -0.9372 0.3238 -0.1298
vn -0.2763 -0.0457 0.9600
vn 0.8430 -0.5025 0.1921
vn 0.6155 -0.3420 0.7100
vn 0.6155 -0.3420 0.7101
vn -0.2550 0.5442 0.7993
vn -0.2549 0.5442 0.7993
vn 0.0902 -0.6041 0.7918
vn 0.0274 -0.4705 -0.8820
vn -0.2236 -0.5465 -0.8070
vn 0.0588 -0.8965 -0.4391
vn -0.2549 0.5443 0.7992
vn 0.0588 -0.8966 -0.4390
vn 0.8429 -0.5025 0.1921
vn 0.4274 -0.8579 0.2851
vn -0.2550 0.5442 0.7992
vn 0.4587 -0.5131 0.7255
vn 0.2157 -0.9747 -0.0580
vn -0.5607 0.8212 0.1058
vn -0.3098 0.6741 -0.6705
vn -0.6706 0.4066 -0.6204
vn -0.7097 0.3530 0.6096
vn -0.3098 0.6740 -0.6706
vn 0.4665 -0.5173 0.7174
vn 0.5293 -0.2558 -0.8090
vn 0.4666 -0.5173 0.7174
vn 0.3802 -0.5978 0.7057
vn 0.4587 -0.5132 0.7254
vn -0.4981 0.5366 0.6811
vn 0.3803 -0.5977 0.7057
vn 0.4587 -0.5131 0.7254
vn 0.2155 -0.9748 -0.0580
vn 0.4274 -0.5740 -0.6985
vn -0.3098 0.6741 -0.6706
vn -0.3256 0.9398 0.1036
vn -0.1451 0.3723 0.9167
vn -0.3255 0.9359 0.1348
vn 0.1920 -0.5895 0.7846
vn 0.1921 -0.5895 0.7846
vn 0.3176 -0.9349 -0.1582
vn 0.1920 -0.5894 0.7847
vn 0.3175 -0.9350 -0.1582
vn -0.3255 0.9359 0.1349
vn -0.2079 0.6457 -0.7347
vn -0.3256 0.9359 0.1348
vn -0.2078 0.6457 -0.7347
vn 0.3097 -0.9376 -0.1583
vn 0.0901 -0.2445 -0.9655
vn -0.7804 -0.6029 -0.1659
vn 0.3097 -0.9348 -0.1739
vn 0.1293 -0.2555 -0.9581
vn -0.1687 0.5861 -0.7925
vn 0.1294 -0.2555 -0.9581
vn -0.1608 0.5651 -0.8092
vn -0.3255 0.9438 0.0567
vn -0.2785 0.9577 0.0730
vn 0.2156 -0.5692 0.7935
vn 0.3725 -0.9118 -0.1728
vn 0.1686 -0.5744 0.8011
vn 0.2156 -0.5692 0.7934
vn -0.1138 0.3271 0.9381
vn 0.1685 -0.5744 0.8011
vn -0.1452 0.3160 0.9376
vn 0.1686 -0.5744 0.8010
vn -0.1451 0.3160 0.9376
vn -0.5843 0.2950 0.7560
vn -0.6705 0.6627 -0.3335
vn 0.3724 -0.9118 -0.1728
vn -0.2785 0.9577 0.0731
vn 0.1843 -0.6031 0.7761
vn -0.1452 0.3723 0.9167
vn 0.1842 -0.6030 0.7762
vn -0.3256 0.1706 -0.9300
vn -0.3255 0.1706 -0.9300
vn -0.2863 0.5706 -0.7697
vn -0.3256 0.9438 0.0567
vn -0.6706 0.6626 -0.3335
vn 0.1685 -0.5744 0.8010
vn -0.7803 -0.6029 -0.1660
vn -0.5529 -0.3840 0.7395
vn -0.7804 -0.6029 -0.1660
vn -0.5530 -0.3840 0.7394
# 153 vertex normals

vt 0.6654 0.6983 0.0000
vt 0.6638 0.7078 0.0000
vt 0.6759 0.6988 0.0000
vt 0.6970 0.7211 0.0000
vt 0.6897 0.7231 0.0000
vt 0.6995 0.7217 0.0000
vt 0.6811 0.7215 0.0000
vt 0.7321 0.7216 0.0000
vt 0.7083 0.7240 0.0000
vt 0.6878 0.7207 0.0000
vt 0.6860 0.7211 0.0000
vt 0.6997 0.7096 0.0000
vt 0.6983 0.7096 0.0000
vt 0.6973 0.7105 0.0000
vt 0.6988 0.7071 0.0000
vt 0.6966 0.7078 0.0000
vt 0.6974 0.7086 0.0000
vt 0.7031 0.7094 0.0000
vt 0.7001 0.7050 0.0000
vt 0.7158 0.6830 0.0000
vt 0.6881 0.7223 0.0000
vt 0.7154 0.7173 0.0000
vt 0.7097 0.7216 0.0000
vt 0.7035 0.7217 0.0000
vt 0.7047 0.7002 0.0000
vt 0.6998 0.7005 0.0000
vt 0.7036 0.7052 0.0000
vt 0.6868 0.7091 0.0000
vt 0.6817 0.7095 0.0000
vt 0.6850 0.7139 0.0000
vt 0.6873 0.7134 0.0000
vt 0.7095 0.7150 0.0000
vt 0.6853 0.7155 0.0000
vt 0.7002 0.7152 0.0000
vt 0.6697 0.7158 0.0000
vt 0.6806 0.7157 0.0000
vt 0.6697 0.7216 0.0000
vt 0.7009 0.7107 0.0000
vt 0.6973 0.7096 0.0000
vt 0.6974 0.7145 0.0000
vt 0.7065 0.6982 0.0000
vt 0.7101 0.7081 0.0000
vt 0.7152 0.6984 0.0000
vt 0.7148 0.6697 0.0000
vt 0.7302 0.6960 0.0000
vt 0.7327 0.6697 0.0000
vt 0.6876 0.6979 0.0000
vt 0.6840 0.6686 0.0000
vt 0.6761 0.6698 0.0000
vt 0.6805 0.7072 0.0000
vt 0.6694 0.7075 0.0000
vt 0.7255 0.7212 0.0000
vt 0.7258 0.7153 0.0000
vt 0.7156 0.7151 0.0000
vt 0.7160 0.7218 0.0000
vt 0.7219 0.7234 0.0000
vt 0.7036 0.7151 0.0000
vt 0.6955 0.7048 0.0000
vt 0.6961 0.7073 0.0000
vt 0.6949 0.7038 0.0000
vt 0.6985 0.7030 0.0000
vt 0.6912 0.6999 0.0000
vt 0.6914 0.7050 0.0000
vt 0.6868 0.7076 0.0000
vt 0.6999 0.7061 0.0000
vt 0.6986 0.7041 0.0000
vt 0.6804 0.7142 0.0000
vt 0.7029 0.7107 0.0000
vt 0.6794 0.7096 0.0000
vt 0.6709 0.7099 0.0000
vt 0.6699 0.7143 0.0000
vt 0.7101 0.7107 0.0000
vt 0.6875 0.7149 0.0000
vt 0.7260 0.7139 0.0000
vt 0.7262 0.7094 0.0000
vt 0.7158 0.7099 0.0000
vt 0.7169 0.7075 0.0000
vt 0.7262 0.7078 0.0000
vt 0.7278 0.6983 0.0000
vt 0.6703 0.6697 0.0000
vt 0.6679 0.6960 0.0000
vt 0.6841 0.6616 0.0000
vt 0.6761 0.6617 0.0000
vt 0.7001 0.6686 0.0000
vt 0.6979 0.6980 0.0000
vt 0.7072 0.6698 0.0000
vt 0.6703 0.6616 0.0000
vt 0.6704 0.6673 0.0000
vt 0.6761 0.6674 0.0000
vt 0.7149 0.6673 0.0000
vt 0.7328 0.6673 0.0000
vt 0.7327 0.6616 0.0000
vt 0.7147 0.6616 0.0000
vt 0.7072 0.6617 0.0000
vt 0.6502 0.8703 0.0000
vt 0.5973 0.9135 0.0000
vt 0.6079 0.8609 0.0000
vt 0.6622 0.7877 0.0000
vt 0.6992 0.8746 0.0000
vt 0.7076 0.7875 0.0000
vt 0.7379 0.8789 0.0000
vt 0.7371 0.7972 0.0000
vt 0.8077 0.7821 0.0000
vt 0.8378 0.7593 0.0000
vt 0.8772 0.8444 0.0000
vt 0.8307 0.8656 0.0000
vt 0.7679 0.7905 0.0000
vt 0.7846 0.8754 0.0000
vt 0.7874 0.9585 0.0000
vt 0.7361 0.9723 0.0000
vt 0.6233 0.7728 0.0000
vt 0.7072 0.6674 0.0000
vt 0.7001 0.6616 0.0000
vt 0.6378 0.9414 0.0000
vt 0.6927 0.9576 0.0000
vt 0.8921 0.8980 0.0000
vt 0.8433 0.9257 0.0000
# 117 texture coords

o Phineas_Brazo_Der
g Phineas_Brazo_Der
usemtl Material_001
s off
f 1/1/1 2/2/2 3/3/3 
f 4/4/4 5/5/5 6/6/6 
f 7/7/7 8/8/8 9/9/9 
f 10/10/10 11/11/11 5/5/5 
f 5/5/12 4/4/4 10/10/13 
f 12/12/14 13/13/15 14/14/16 
f 15/15/17 16/16/18 13/13/15 
f 13/13/19 12/12/20 15/15/17 
f 17/17/21 18/18/22 19/19/23 
f 20/20/24 9/21/9 8/22/8 
f 20/20/25 21/23/26 22/24/27 
f 22/24/28 9/21/9 20/20/29 
f 19/19/23 23/25/30 24/26/31 
f 19/19/23 18/27/22 23/25/32 
f 25/28/33 26/29/34 27/30/35 
f 28/31/36 25/28/33 27/30/35 
f 22/24/27 21/23/37 29/32/38 
f 27/33/39 11/11/40 10/10/13 
f 4/4/4 6/6/6 30/34/41 
f 31/35/42 7/7/43 32/36/44 
f 31/35/45 8/37/46 7/7/47 
f 18/38/48 17/39/49 33/40/50 
f 23/41/32 18/18/22 34/42/51 
f 35/43/52 23/41/30 34/42/53 
f 36/44/54 23/41/30 35/43/52 
f 1/45/1 36/44/55 35/43/52 
f 37/46/56 36/44/54 1/45/1 
f 38/47/57 39/48/58 40/49/59 
f 3/3/3 38/47/57 40/49/60 
f 26/50/34 38/47/61 3/3/3 
f 2/51/2 26/50/34 3/3/3 
f 8/52/8 31/53/42 29/54/62 
f 21/55/26 8/52/8 29/54/63 
f 20/56/24 8/52/8 21/55/37 
f 22/24/27 41/57/64 32/36/44 
f 7/7/65 22/24/27 32/36/66 
f 9/9/9 22/24/27 7/7/47 
f 11/11/67 27/33/35 30/34/68 
f 6/6/6 11/11/67 30/34/68 
f 5/5/5 11/11/67 6/6/6 
f 16/16/69 42/58/70 43/59/71 
f 14/14/72 16/16/69 43/59/71 
f 13/13/19 16/16/73 14/14/16 
f 42/60/70 44/61/74 24/26/75 
f 38/62/57 42/60/70 24/26/76 
f 45/63/77 42/60/70 38/62/57 
f 25/64/33 45/63/78 38/62/57 
f 17/17/79 45/63/78 25/64/33 
f 43/59/71 46/65/80 12/12/81 
f 19/19/82 46/65/80 43/59/71 
f 45/63/83 19/19/23 43/59/71 
f 17/17/21 19/19/23 45/63/77 
f 19/19/23 24/26/75 44/61/74 
f 46/65/80 19/19/84 44/61/85 
f 15/15/86 12/12/20 46/65/80 
f 44/66/85 15/15/86 46/65/80 
f 42/58/70 16/16/69 15/15/86 
f 44/66/85 42/58/70 15/15/86 
f 12/12/14 14/14/16 43/59/71 
f 43/59/71 42/60/70 45/63/87 
f 17/39/21 25/28/33 28/31/36 
f 33/40/88 17/39/21 28/31/36 
f 32/67/44 18/68/89 26/69/90 
f 2/70/91 32/67/44 26/69/34 
f 31/71/92 32/67/93 2/70/94 
f 41/57/95 22/24/27 29/32/96 
f 34/72/53 41/57/64 29/32/96 
f 18/68/22 41/57/97 34/72/53 
f 28/73/36 27/33/35 10/10/13 
f 4/4/98 28/73/36 10/10/13 
f 33/40/99 28/73/100 4/4/101 
f 33/40/99 4/4/101 30/34/41 
f 18/38/22 33/40/102 30/34/41 
f 27/30/35 26/29/34 18/38/103 
f 30/34/104 27/30/35 18/38/22 
f 32/67/44 41/57/64 18/68/22 
f 31/74/45 2/75/91 34/76/51 
f 29/54/96 31/74/45 34/76/53 
f 35/43/52 34/77/53 2/78/105 
f 1/79/1 35/43/52 2/78/105 
f 26/50/34 25/64/33 38/47/57 
f 40/49/59 37/80/56 1/81/1 
f 3/3/106 40/49/59 1/81/1 
f 39/48/58 47/82/107 48/83/108 
f 49/84/109 47/82/107 39/48/58 
f 38/47/57 49/84/110 39/48/58 
f 24/85/31 49/84/109 38/47/57 
f 23/41/30 36/44/54 50/86/111 
f 49/84/112 23/41/32 50/86/113 
f 24/85/75 23/41/30 49/84/110 
f 48/83/114 51/87/115 37/88/56 
f 40/89/59 48/83/108 37/88/56 
f 39/48/58 48/83/116 40/89/59 
f 36/90/55 37/91/56 51/92/117 
f 52/93/55 36/90/54 51/92/115 
f 53/94/118 36/90/55 52/93/54 
f 54/95/119 55/96/120 56/97/121 
f 57/98/122 54/95/119 56/97/121 
f 58/99/123 54/95/119 57/98/124 
f 59/100/125 58/99/123 57/98/122 
f 60/101/126 58/99/123 59/100/125 
f 61/102/127 60/101/126 59/100/125 
f 62/103/128 63/104/129 56/105/121 
f 64/106/130 62/103/131 56/105/121 
f 65/107/132 62/103/131 64/106/133 
f 66/108/134 65/107/132 64/106/135 
f 60/101/126 65/107/132 66/108/136 
f 67/109/137 60/101/126 66/108/134 
f 68/110/138 60/101/126 67/109/137 
f 56/97/121 63/111/139 57/98/122 
f 60/101/126 61/102/140 65/107/132 
f 53/94/118 50/112/111 36/90/54 
f 49/84/109 50/112/111 53/94/118 
f 69/113/141 49/84/109 53/94/118 
f 47/82/142 49/84/109 69/113/143 
f 70/114/144 55/96/120 54/95/119 
f 58/99/123 70/114/145 54/95/119 
f 71/115/146 70/114/145 58/99/123 
f 60/101/147 71/115/146 58/99/123 
f 68/110/148 71/115/146 60/101/126 
f 64/106/149 56/105/121 55/116/150 
f 72/117/151 64/106/133 55/116/152 
f 66/108/134 64/106/135 72/117/153 
f 67/109/137 66/108/136 72/117/153 
# 0 polygons - 124 triangles

