# 3ds Max Wavefront OBJ Exporter v0.99 - (c)2007 guruware
# File Created: 07.05.2025 03:33:36

mtllib phineas_piernaI.mtl

#
# object Phineas_Pierna_Izq
#

v  -0.0406 -0.3177 0.1530
v  -0.0525 -0.3483 0.0882
v  -0.0436 -0.3516 0.1559
v  -0.0428 -0.2950 0.0848
v  -0.0171 -0.3051 0.1571
v  -0.0202 -0.2717 0.0768
v  0.0196 -0.2718 0.0766
v  0.0142 -0.2712 0.0211
v  0.0446 -0.2949 0.0819
v  0.0291 -0.2936 -0.0082
v  0.0341 -0.3435 -0.0107
v  0.0159 -0.3417 -0.0421
v  -0.0304 -0.2931 -0.0068
v  -0.0227 -0.3412 -0.0427
v  -0.0354 -0.3431 -0.0090
v  -0.0178 -0.2711 0.0210
v  0.0577 -0.3484 0.0872
v  0.0504 -0.3514 0.1520
v  0.0163 -0.3527 0.1795
v  -0.0109 -0.3527 0.1793
v  -0.0878 -0.0302 -0.1074
v  -0.0878 0.0303 -0.1088
v  0.0129 0.0279 -0.0704
v  0.0198 -0.0368 -0.0735
v  -0.0742 -0.0547 -0.0979
v  -0.0586 -0.1097 -0.0816
v  -0.0783 -0.0637 0.0080
v  -0.0719 -0.1176 -0.0011
v  0.0493 0.0142 0.0185
v  0.0495 -0.0353 0.0161
v  0.0147 -0.0397 0.0866
v  0.0124 -0.1251 0.0839
v  -0.0740 -0.0752 0.1053
v  -0.0654 -0.1245 0.0941
v  0.0105 -0.2471 0.0156
v  -0.0144 -0.2471 0.0155
v  -0.0236 -0.2461 -0.0048
v  -0.0157 -0.2447 -0.0288
v  0.0095 -0.2452 -0.0280
v  0.0221 -0.2465 -0.0058
v  0.0088 -0.1519 0.0209
v  -0.0139 -0.1516 0.0201
v  -0.0217 -0.1507 0.0015
v  -0.0139 -0.1491 -0.0201
v  0.0089 -0.1497 -0.0187
v  0.0199 -0.1516 0.0017
v  0.0199 -0.0710 0.0062
v  0.0089 -0.0685 -0.0142
v  -0.0878 -0.0394 0.1150
v  0.0077 0.0154 0.0881
v  -0.0878 0.0213 0.1204
v  0.0433 -0.3175 0.1513
v  0.0212 -0.3051 0.1570
v  0.0540 -0.1304 0.0116
v  0.0176 -0.1212 -0.0737
v  -0.0217 -0.0682 0.0060
v  -0.0139 -0.0653 -0.0155
v  0.0088 -0.0694 0.0255
v  -0.0139 -0.0691 0.0247
v  -0.0878 -0.0512 0.0108
v  -0.0023 -0.1093 0.0035
# 61 vertices

vn -0.7490 0.4220 0.5108
vn -0.7960 -0.6033 -0.0482
vn -0.7019 -0.5838 0.4081
vn -0.8745 0.4782 0.0817
vn -0.2392 0.7069 0.6657
vn -0.8745 0.4782 0.0816
vn -0.3726 0.9118 0.1729
vn 0.3489 0.9238 0.1578
vn -0.3726 0.9117 0.1729
vn -0.2393 0.7068 0.6657
vn 0.6313 0.6877 0.3585
vn -0.3726 0.9117 0.1730
vn 0.8508 0.5236 0.0446
vn 0.6312 0.6877 0.3586
vn 0.9371 0.2237 -0.2680
vn 0.7175 -0.6283 -0.3007
vn 0.9371 0.2238 -0.2680
vn 0.4038 -0.5430 -0.7362
vn 0.7175 -0.6283 -0.3006
vn -0.9686 0.1757 -0.1761
vn -0.4745 -0.5183 -0.7115
vn -0.7412 -0.6334 -0.2224
vn -0.9686 0.1756 -0.1761
vn -0.7412 -0.6334 -0.2223
vn -0.6784 0.6466 0.3488
vn -0.8745 0.4781 0.0817
vn -0.6784 0.6466 0.3487
vn -0.3725 0.9118 0.1729
vn 0.7175 -0.6284 -0.3006
vn 0.8038 -0.5907 -0.0712
vn 0.7332 -0.5709 0.3694
vn -0.7961 -0.6033 -0.0482
vn 0.7332 -0.5710 0.3694
vn 0.2235 -0.5152 0.8274
vn -0.2078 -0.5085 0.8356
vn -0.4746 -0.5182 -0.7115
vn 0.4038 -0.5430 -0.7363
vn -0.0040 -0.2820 -0.9594
vn -0.0040 -0.0792 -0.9969
vn 0.6547 0.1380 -0.7432
vn 0.6783 -0.0830 -0.7301
vn -0.0040 -0.2821 -0.9594
vn 0.6548 0.1380 -0.7431
vn -0.4353 -0.4636 -0.7717
vn 0.6783 -0.0831 -0.7301
vn -0.4353 -0.6635 -0.6085
vn -0.9215 -0.3856 -0.0457
vn -0.6471 -0.7565 -0.0947
vn 0.9920 0.1042 0.0717
vn 0.9920 0.1042 0.0718
vn 0.6234 -0.0863 0.7771
vn 0.4273 -0.6905 0.5836
vn 0.6234 -0.0863 0.7772
vn -0.5451 -0.3004 0.7827
vn 0.4274 -0.6905 0.5835
vn 0.6234 -0.0862 0.7771
vn -0.4745 -0.7044 0.5279
vn -0.5451 -0.3005 0.7827
vn -0.6470 -0.7565 -0.0948
vn -0.4745 -0.7043 0.5280
vn 0.5057 0.1013 0.8567
vn -0.5530 0.0588 0.8311
vn -0.9991 -0.0021 0.0431
vn -0.5529 0.0588 0.8312
vn -0.9991 -0.0020 0.0431
vn -0.5686 0.1108 -0.8151
vn -0.4745 -0.5182 -0.7115
vn -0.5686 0.1109 -0.8151
vn 0.5057 0.1829 -0.8431
vn 0.9920 0.1247 -0.0215
vn 0.5058 0.1012 0.8567
vn 0.9920 0.1246 -0.0215
vn 0.5058 0.1828 -0.8431
vn -0.5529 0.0588 0.8311
vn 0.4735 -0.0418 0.8798
vn -0.5664 -0.0391 0.8232
vn -0.9996 -0.0013 0.0275
vn -0.5529 0.0587 0.8312
vn -0.5529 0.1385 -0.8216
vn -0.5529 0.1384 -0.8216
vn 0.5371 0.1581 -0.8286
vn 0.5058 0.1829 -0.8431
vn 0.5371 0.1582 -0.8285
vn 0.9920 0.1239 0.0256
vn 0.5371 0.1582 -0.8286
vn 0.4736 -0.0418 0.8798
vn 0.9920 -0.1247 0.0216
vn 0.9920 -0.1246 0.0216
vn -0.0040 -0.2232 0.9748
vn 0.6234 -0.0862 0.7772
vn 0.5763 -0.1329 0.8063
vn -0.0040 -0.0572 0.9984
vn 0.5763 -0.1330 0.8063
vn 0.7410 0.4520 0.4965
vn 0.2234 -0.5152 0.8274
vn 0.2626 0.7059 0.6578
vn 0.2235 -0.5153 0.8274
vn 0.7410 0.4520 0.4966
vn -0.2079 -0.5085 0.8356
vn 0.2626 0.7060 0.6578
vn -0.7020 -0.5837 0.4081
vn 0.6861 -0.7271 0.0244
vn 0.4117 -0.6779 -0.6091
vn 0.4116 -0.6778 -0.6092
vn -0.7960 -0.6033 -0.0483
vn 0.2627 0.7059 0.6578
vn 0.7410 0.4521 0.4966
vn 0.8038 -0.5907 -0.0711
vn -0.9998 -0.0010 0.0197
vn -0.5664 -0.0392 0.8232
vn -0.9998 -0.0010 0.0196
vn -0.9998 -0.0009 0.0196
vn -0.5530 0.1385 -0.8216
vn 0.4509 -0.1082 0.8860
vn 0.4509 -0.1081 0.8860
vn -0.5717 -0.0389 0.8196
vn -0.9998 -0.0009 0.0197
vn -0.5716 -0.0390 0.8196
vn -0.0040 -0.9966 -0.0825
vn -0.0040 -0.9966 -0.0826
vn -0.4353 -0.4636 -0.7718
vn -0.5451 -0.3005 0.7826
vn -0.0040 -0.9966 -0.0827
vn -0.1451 -0.9885 -0.0430
vn 0.4117 -0.6778 -0.6092
vn 0.4273 -0.6906 0.5836
vn -0.1452 -0.9885 -0.0430
vn 0.4274 -0.6906 0.5835
vn -0.4745 -0.7044 0.5280
vn -0.6471 -0.7565 -0.0948
vn -0.2393 0.7069 0.6657
# 131 vertex normals

vt 0.2853 0.1013 0.0000
vt 0.1884 0.1885 0.0000
vt 0.2396 0.0666 0.0000
vt 0.2761 0.2273 0.0000
vt 0.3221 0.1021 0.0000
vt 0.3220 0.2563 0.0000
vt 0.3901 0.2529 0.0000
vt 0.4045 0.3450 0.0000
vt 0.4468 0.2213 0.0000
vt 0.4700 0.3522 0.0000
vt 0.5699 0.3198 0.0000
vt 0.5781 0.4310 0.0000
vt 0.2574 0.3663 0.0000
vt 0.1428 0.4319 0.0000
vt 0.1602 0.3355 0.0000
vt 0.3221 0.3529 0.0000
vt 0.0099 0.2559 0.0000
vt 0.0497 0.2904 0.0000
vt 0.0560 0.2550 0.0000
vt 0.0521 0.2261 0.0000
vt 0.0128 0.2255 0.0000
vt 0.0376 0.2142 0.0000
vt 0.0262 0.2146 0.0000
vt 0.0163 0.2914 0.0000
vt 0.0239 0.3141 0.0000
vt 0.0400 0.3134 0.0000
vt 0.9069 0.5929 0.0000
vt 0.9656 0.6045 0.0000
vt 0.9857 0.4455 0.0000
vt 0.9025 0.4440 0.0000
vt 0.8729 0.5651 0.0000
vt 0.8088 0.5183 0.0000
vt 0.7440 0.6263 0.0000
vt 0.7166 0.5423 0.0000
vt 0.9805 0.3257 0.0000
vt 0.9043 0.3252 0.0000
vt 0.9197 0.2242 0.0000
vt 0.8215 0.2239 0.0000
vt 0.8555 0.1153 0.0000
vt 0.7930 0.1398 0.0000
vt 0.7594 0.0351 0.0000
vt 0.7056 0.1050 0.0000
vt 0.1309 0.2550 0.0000
vt 0.0783 0.3041 0.0000
vt 0.0827 0.2540 0.0000
vt 0.0677 0.2109 0.0000
vt 0.1608 0.1825 0.0000
vt 0.0505 0.1625 0.0000
vt 0.2159 0.0622 0.0000
vt 0.0144 0.1278 0.0000
vt 0.1775 0.0081 0.0000
vt 0.1211 0.3236 0.0000
vt 0.1204 0.4095 0.0000
vt 0.0532 0.3439 0.0000
vt 0.0914 0.2286 0.0000
vt 0.0536 0.1916 0.0000
vt 0.1006 0.1104 0.0000
vt 0.2166 0.0702 0.0000
vt 0.6983 0.6643 0.0000
vt 0.7078 0.7012 0.0000
vt 0.6983 0.7013 0.0000
vt 0.6895 0.7013 0.0000
vt 0.6895 0.6643 0.0000
vt 0.6795 0.7053 0.0000
vt 0.6795 0.6644 0.0000
vt 0.6699 0.7051 0.0000
vt 0.6699 0.6642 0.0000
vt 0.7179 0.6641 0.0000
vt 0.7288 0.6642 0.0000
vt 0.7288 0.7051 0.0000
vt 0.7179 0.7009 0.0000
vt 0.7078 0.6643 0.0000
vt 0.7179 0.7211 0.0000
vt 0.7078 0.7087 0.0000
vt 0.7179 0.7084 0.0000
vt 0.7288 0.7217 0.0000
vt 0.9031 0.0873 0.0000
vt 0.9857 0.2265 0.0000
vt 0.9682 0.0752 0.0000
vt 0.4157 0.0960 0.0000
vt 0.4501 0.0531 0.0000
vt 0.5280 0.1586 0.0000
vt 0.3711 0.0085 0.0000
vt 0.3796 0.1005 0.0000
vt 0.3219 0.0092 0.0000
vt 0.8094 0.3279 0.0000
vt 0.8146 0.4385 0.0000
vt 0.6895 0.7223 0.0000
vt 0.6895 0.7088 0.0000
vt 0.6983 0.7088 0.0000
vt 0.6795 0.7231 0.0000
vt 0.6699 0.7217 0.0000
vt 0.7078 0.7221 0.0000
vt 0.6983 0.7223 0.0000
vt 0.7553 0.6525 0.0000
vt 0.7792 0.0142 0.0000
vt 0.8742 0.5350 0.0000
vt 0.9444 0.5232 0.0000
vt 0.9173 0.5709 0.0000
vt 0.8519 0.5709 0.0000
vt 0.8174 0.5231 0.0000
vt 0.8321 0.4695 0.0000
vt 0.8961 0.4913 0.0000
# 103 texture coords

o Phineas_Pierna_Izq
g Phineas_Pierna_Izq
usemtl Material_001
s off
f 1/1/1 2/2/2 3/3/3 
f 4/4/4 2/2/2 1/1/1 
f 5/5/5 4/4/6 1/1/1 
f 6/6/7 4/4/4 5/5/5 
f 7/7/8 6/6/9 5/5/10 
f 8/8/11 6/6/12 7/7/8 
f 9/9/13 8/8/14 7/7/8 
f 10/10/15 8/8/14 9/9/13 
f 11/11/16 10/10/17 9/9/13 
f 12/12/18 10/10/17 11/11/19 
f 13/13/20 14/14/21 15/15/22 
f 4/4/4 13/13/23 15/15/24 
f 16/16/25 13/13/20 4/4/26 
f 6/6/12 16/16/27 4/4/4 
f 8/8/14 16/16/25 6/6/28 
f 2/17/2 11/18/29 17/19/30 
f 18/20/31 2/17/32 17/19/30 
f 3/21/3 2/17/32 18/20/33 
f 19/22/34 3/21/3 18/20/33 
f 20/23/35 3/21/3 19/22/34 
f 15/24/24 14/25/36 12/26/37 
f 11/18/16 15/24/22 12/26/37 
f 2/17/2 15/24/22 11/18/19 
f 21/27/38 22/28/39 23/29/40 
f 24/30/41 21/27/42 23/29/43 
f 25/31/44 21/27/42 24/30/45 
f 26/32/46 25/31/44 24/30/45 
f 27/33/47 25/31/44 26/32/46 
f 28/34/48 27/33/47 26/32/46 
f 29/35/49 24/30/45 23/29/40 
f 30/36/49 24/30/41 29/35/50 
f 31/37/51 30/36/50 29/35/50 
f 32/38/52 30/36/49 31/37/53 
f 33/39/54 32/38/55 31/37/56 
f 34/40/57 32/38/52 33/39/58 
f 27/41/47 34/40/57 33/39/58 
f 28/42/59 34/40/60 27/41/47 
f 16/43/25 35/44/61 36/45/62 
f 37/46/63 16/43/27 36/45/64 
f 13/47/20 16/43/27 37/46/65 
f 38/48/66 13/47/20 37/46/65 
f 14/49/67 13/47/20 38/48/68 
f 39/50/69 14/49/21 38/48/68 
f 12/51/37 14/49/21 39/50/69 
f 8/52/14 10/53/15 40/54/70 
f 35/44/71 8/52/14 40/54/70 
f 16/43/25 8/52/14 35/44/61 
f 39/55/69 40/56/72 10/57/17 
f 12/58/18 39/55/73 10/57/17 
f 36/59/74 41/60/75 42/61/76 
f 43/62/77 36/59/78 42/61/76 
f 37/63/63 36/59/62 43/62/77 
f 44/64/79 37/63/65 43/62/77 
f 38/65/68 37/63/63 44/64/80 
f 45/66/81 38/65/66 44/64/80 
f 39/67/82 38/65/66 45/66/83 
f 40/68/70 39/69/73 45/70/81 
f 46/71/84 40/68/70 45/70/85 
f 35/72/61 40/68/70 46/71/84 
f 41/60/86 35/72/71 46/71/84 
f 36/59/64 35/72/61 41/60/75 
f 47/73/87 41/74/86 46/75/84 
f 45/70/81 47/73/88 46/75/84 
f 48/76/82 47/73/87 45/70/81 
f 49/77/89 33/39/58 31/37/90 
f 50/78/91 49/77/89 31/37/90 
f 51/79/92 49/77/89 50/78/93 
f 52/80/94 18/81/33 17/82/30 
f 19/83/95 18/81/31 52/80/94 
f 53/84/96 19/83/97 52/80/98 
f 20/85/99 19/83/34 53/84/96 
f 5/5/10 20/85/99 53/84/100 
f 1/1/1 20/85/99 5/5/5 
f 20/85/35 1/1/1 3/3/101 
f 30/36/49 32/38/52 54/86/102 
f 55/87/103 30/36/50 54/86/102 
f 24/30/41 30/36/49 55/87/104 
f 26/32/46 24/30/41 55/87/104 
f 2/2/105 4/4/26 15/15/22 
f 9/9/13 53/84/106 52/80/94 
f 17/82/30 9/9/13 52/80/107 
f 11/11/29 9/9/13 17/82/108 
f 56/88/109 43/89/77 42/90/110 
f 44/64/79 43/89/77 56/88/111 
f 57/91/68 44/64/79 56/88/112 
f 48/92/73 44/64/113 57/91/68 
f 58/93/114 41/74/86 47/73/88 
f 42/90/76 41/74/86 58/93/115 
f 59/94/116 42/90/76 58/93/114 
f 56/88/117 42/90/76 59/94/118 
f 48/92/82 45/66/81 44/64/79 
f 60/95/119 21/27/38 25/31/44 
f 27/33/47 60/95/120 25/31/121 
f 33/39/122 49/77/89 60/96/123 
f 27/41/47 33/39/58 60/96/120 
f 29/35/49 50/78/91 31/37/56 
f 61/97/124 26/98/46 55/99/104 
f 54/100/102 61/97/124 55/99/125 
f 32/101/126 61/97/127 54/100/102 
f 61/97/124 32/101/128 34/102/129 
f 28/103/130 61/97/124 34/102/57 
f 26/98/46 61/97/124 28/103/59 
f 7/7/8 5/5/131 53/84/96 
f 9/9/13 7/7/8 53/84/96 
# 0 polygons - 104 triangles

